<svg width="200" height="90" viewBox="0 0 200 90" fill="none" xmlns="http://www.w3.org/2000/svg">
<rect width="200" height="90" fill="white"/>
<path d="M180.13 44.8711H179.934C179.934 44.8711 180 46.5698 180 51.7313V61.0743H171.539V32H181.307L189.408 48.2359H189.604C189.604 48.2359 189.539 46.5372 189.539 41.3757V32H197.999V61.0743H188.232L180.13 44.8711Z" fill="black"/>
<path d="M149.722 44.8711H149.526C149.526 44.8711 149.592 46.5698 149.592 51.7313V61.0743H141.131V32H150.898L158.967 48.2359H159.163C159.163 48.2359 159.098 46.5372 159.098 41.3757V32H167.558V61.0743H157.791L149.722 44.8711Z" fill="black"/>
<path d="M23.0376 32.0312H13.3028L2 61.0729H12.0941L18.0722 43.7263H18.2682L24.2789 61.0729H34.373L23.0376 32.0312Z" fill="black"/>
<path d="M129.01 32.0312H119.275L107.939 61.0729H118.034L124.044 43.7263H124.24L130.218 61.0729H140.312L129.01 32.0312Z" fill="#E42130"/>
<path d="M86.8008 61.0729L81.7047 43.563H81.5087C81.5087 43.563 81.574 45.0004 81.574 50.1619V61.0729H73.1133V32.0312H85.0694L90.0348 49.1818H90.2308L95.1962 32.0312H107.185V61.0729H98.7569V50.1619C98.7569 45.0004 98.8222 43.563 98.8222 43.563H98.6262L93.5302 61.0729H86.8008Z" fill="black"/>
<path d="M48.8125 61.0729L43.7164 43.563H43.5204C43.5204 43.563 43.5858 45.0004 43.5858 50.1619V61.0729H35.125V32.0312H47.0811L52.0465 49.1818H52.2425L57.2079 32.0312H69.1641V61.0729H60.7033C60.7033 61.0729 60.7033 55.3234 60.7033 50.1619C60.7033 45.0004 60.7686 43.563 60.7686 43.563H60.5726L55.5419 61.0729H48.8125Z" fill="black"/>
</svg>
