<svg width="200" height="90" viewBox="0 0 200 90" fill="none" xmlns="http://www.w3.org/2000/svg">
<rect width="200" height="90" fill="white"/>
<path d="M175.316 44.0171H175.133C175.133 44.0171 175.194 45.6031 175.194 50.4221V59.1452H167.295V32H176.414L183.979 47.1586H184.162C184.162 47.1586 184.101 45.5726 184.101 40.7536V32H192V59.1452H182.881L175.316 44.0171Z" fill="black"/>
<path d="M146.923 44.0171H146.74C146.74 44.0171 146.801 45.6031 146.801 50.4221V59.1452H138.901V32H148.021L155.554 47.1586H155.737C155.737 47.1586 155.676 45.5726 155.676 40.7536V32H163.576V59.1452H154.456L146.923 44.0171Z" fill="black"/>
<path d="M28.6421 32.0312H19.5531L9 59.1459H18.4246L24.0061 42.9503H24.1891L29.8011 59.1459H39.2257L28.6421 32.0312Z" fill="black"/>
<path d="M127.587 32.0312H118.498L107.914 59.1459H117.339L122.951 42.9503H123.134L128.715 59.1459H138.14L127.587 32.0312Z" fill="#E42130"/>
<path d="M88.1771 59.1459L83.419 42.7978H83.236C83.236 42.7978 83.297 44.1398 83.297 48.9589V59.1459H75.3975V32.0312H86.5605L91.1966 48.0439H91.3796L96.0156 32.0312H107.209V59.1459H99.3401V48.9589C99.3401 44.1398 99.4011 42.7978 99.4011 42.7978H99.2181L94.4601 59.1459H88.1771Z" fill="black"/>
<path d="M52.7078 59.1459L47.9498 42.7978H47.7668C47.7668 42.7978 47.8278 44.1398 47.8278 48.9589V59.1459H39.9282V32.0312H51.0913L55.7273 48.0439H55.9103L60.5464 32.0312H71.7095V59.1459H63.8099C63.8099 59.1459 63.8099 53.7779 63.8099 48.9589C63.8099 44.1398 63.8709 42.7978 63.8709 42.7978H63.6879L58.9909 59.1459H52.7078Z" fill="black"/>
</svg>
