<svg width="260" height="40" viewBox="0 0 260 40" fill="none" xmlns="http://www.w3.org/2000/svg">
<rect width="260" height="40" fill="white"/>
<path d="M37.7029 26.7782L16 37L37.7029 2V26.7782Z" fill="black" stroke="black" stroke-width="0.18" stroke-linecap="square"/>
<path d="M39.2598 26.7782L60.9333 37L39.2598 2V26.7782Z" fill="#FF0000" stroke="#FF0000" stroke-width="0.18" stroke-linecap="square"/>
<path d="M84.5466 24.6737V27.3445C84.5466 28.3797 84.029 28.8973 82.9938 28.8973H64.4844C63.4492 28.8973 62.9316 28.3797 62.9316 27.3445V24.6737H78.4596V21.2575H64.4844C63.4492 21.2575 62.9316 20.7399 62.9316 19.7047V17.0339V14.1767V11.5059C62.9316 10.4707 63.4492 9.95312 64.4844 9.95312H82.9938C84.029 9.95312 84.5466 10.4707 84.5466 11.5059V14.1767H69.0186V17.5929H82.9938C84.029 17.5929 84.5466 18.1105 84.5466 19.1457V21.8165V24.6737Z" fill="black" stroke="black" stroke-width="0.18" stroke-linecap="square"/>
<path d="M110.951 17.3445V21.506C110.951 26.6406 108.57 29.2079 103.808 29.2079L89.0254 28.8973V9.95312H103.808C108.57 9.95312 110.951 12.4169 110.951 17.3445ZM94.8639 24.4252H102.193C103.974 24.2596 104.947 23.2865 105.112 21.506V17.0339C104.947 15.2948 103.974 14.3424 102.193 14.1767H94.8639V24.4252Z" fill="black" stroke="black" stroke-width="0.18" stroke-linecap="square"/>
<path d="M102.189 17.8465V20.7658C102.189 21.2627 101.94 21.5111 101.443 21.5111H98.0273V17.0391H101.443C101.94 17.0391 102.189 17.3082 102.189 17.8465Z" fill="#FF0000" stroke="#FF0000" stroke-width="0.18" stroke-linecap="square"/>
<path d="M115.107 14.4252V11.5059C115.107 10.4707 115.646 9.95312 116.722 9.95312H121.194V24.4252H136.225V27.3445C136.225 28.3797 135.708 28.8973 134.673 28.8973H116.722C115.646 28.8973 115.107 28.3797 115.107 27.3445V24.4252V14.4252Z" fill="black" stroke="black" stroke-width="0.18" stroke-linecap="square"/>
<path d="M139.395 14.4252V24.4252V27.3445C139.395 28.3797 139.912 28.8973 140.947 28.8973H159.954C161.03 28.8973 161.568 28.3797 161.568 27.3445V17.3445H151.506V21.2575H155.482V24.4252H145.481V14.1767H161.568V11.5059C161.568 10.4707 161.03 9.95312 159.954 9.95312H145.73H140.947C139.912 9.95312 139.395 10.4707 139.395 11.5059V14.4252Z" fill="black" stroke="black" stroke-width="0.18" stroke-linecap="square"/>
</svg>
