<svg width="260" height="40" viewBox="0 0 260 40" fill="none" xmlns="http://www.w3.org/2000/svg">
<rect width="260" height="40" fill="white"/>
<path d="M195.708 18.2809H195.513C195.513 18.2809 195.578 20.0337 195.578 25.3595V35H187.186V5H196.874L204.912 21.7528H205.106C205.106 21.7528 205.042 20 205.042 14.6742V5H213.434V35H203.745L195.708 18.2809Z" fill="black"/>
<path d="M165.541 18.2809H165.346C165.346 18.2809 165.411 20.0337 165.411 25.3595V35H157.018V5H166.707L174.711 21.7528H174.905C174.905 21.7528 174.841 20 174.841 14.6742V5H183.234V35H173.544L165.541 18.2809Z" fill="black"/>
<path d="M39.8693 5.03516H30.2124L19 35.0014H29.0134L34.9437 17.1025H35.1381L41.1007 35.0014H51.1142L39.8693 5.03516Z" fill="black"/>
<path d="M144.996 5.03516H135.339L124.094 35.0014H134.108L140.07 17.1025H140.265L146.194 35.0014H156.208L144.996 5.03516Z" fill="#E42130"/>
<path d="M103.125 35.0014L98.0701 16.9339H97.8756C97.8756 16.9339 97.9405 18.4172 97.9405 23.743V35.0014H89.5469V5.03516H101.408L106.334 22.7318H106.528L111.454 5.03516H123.346V35.0014H114.986V23.743C114.986 18.4172 115.051 16.9339 115.051 16.9339H114.856L109.801 35.0014H103.125Z" fill="black"/>
<path d="M65.4374 34.9663L60.3822 16.8988H60.1877C60.1877 16.8988 60.2525 18.382 60.2525 23.7078V34.9663H51.8594V5H63.7199L68.6456 22.6966H68.8401L73.7659 5H85.6263V34.9663H77.2328C77.2328 34.9663 77.2328 29.0336 77.2328 23.7078C77.2328 18.382 77.2976 16.8988 77.2976 16.8988H77.1031L72.1131 34.9663H65.4374Z" fill="black"/>
</svg>
