<svg width="200" height="90" viewBox="0 0 200 90" fill="none" xmlns="http://www.w3.org/2000/svg">
<g clip-path="url(#clip0_1305_923)">
<rect width="200" height="90" fill="white"/>
<mask id="mask0_1305_923" style="mask-type:luminance" maskUnits="userSpaceOnUse" x="-23" y="-42" width="247" height="174">
<path d="M-23 -42H223.086V132H-23V-42Z" fill="white"/>
</mask>
<g mask="url(#mask0_1305_923)">
<path d="M37.6557 35.0176V42.8214L44.4599 46.4796L58.8437 38.1376C59.6662 37.6608 60.1728 36.7793 60.1728 35.8252V31.2571C60.1728 30.3065 59.6695 29.4273 58.8513 28.9494L45.9254 21.3937C45.1017 20.9131 44.0857 20.9114 43.2608 21.3899L30.3411 28.8851C29.5192 29.3621 29.0132 30.2437 29.0132 31.1972V46.1949C29.0132 47.1487 29.5192 48.0299 30.3411 48.507L43.2424 55.9916C44.0769 56.476 45.1073 56.4684 45.9342 55.9715L58.8545 48.2082C59.67 47.7178 60.1629 46.8274 60.1471 45.8725L60.0419 39.4643L44.5946 48.7443L35.9343 43.7205V33.6718L43.7075 29.1622C44.2558 28.8442 44.9322 28.8453 45.4791 29.166L53.24 33.7104L45.2382 38.3507C44.6718 38.6798 43.9738 38.6798 43.4073 38.3507L37.6557 35.0176Z" fill="#354C5E"/>
<path d="M68.9673 51.9663V26.4957C68.9673 26.218 69.1915 25.993 69.4674 25.993H85.152C85.4285 25.993 85.6527 26.218 85.6527 26.4957V31.0545C85.6527 31.3321 85.4285 31.5569 85.152 31.5569H75.3392C75.0629 31.5569 74.8385 31.7823 74.8385 32.0594V36.0952C74.8385 36.3729 75.0629 36.5982 75.3392 36.5982H84.1491C84.4254 36.5982 84.6493 36.8233 84.6493 37.101V41.2859C84.6493 41.5639 84.4254 41.7892 84.1491 41.7892H75.3392C75.0629 41.7892 74.8385 42.014 74.8385 42.2917V46.3649C74.8385 46.6426 75.0629 46.8674 75.3392 46.8674H85.1891C85.4657 46.8674 85.6898 47.0927 85.6898 47.3707V51.9663C85.6898 52.244 85.4657 52.4688 85.1891 52.4688H69.4674C69.1915 52.4688 68.9673 52.244 68.9673 51.9663Z" fill="#354C5E"/>
<path d="M88.1396 59.0608V34.4119C88.1396 34.1345 88.3636 33.9092 88.6398 33.9092H93.1023C93.378 33.9092 93.6025 34.1345 93.6025 34.4119V35.8138C94.3826 34.6186 96.3896 33.4608 99.0285 33.4608C104.379 33.4608 107.612 37.5691 107.612 43.1327C107.612 48.8092 103.97 52.8798 98.8051 52.8798C96.4264 52.8798 94.6431 52.0573 93.7884 51.0123V59.0608C93.7884 59.3388 93.5639 59.5645 93.2877 59.5645H88.6398C88.3636 59.5645 88.1396 59.3388 88.1396 59.0608ZM97.8756 38.5766C95.6834 38.5766 93.7135 40.0706 93.7135 43.1701C93.7135 46.2323 95.6834 47.8008 97.8756 47.8008C100.106 47.8008 102.075 46.2691 102.075 43.1701C102.075 40.0706 100.106 38.5766 97.8756 38.5766Z" fill="#354C5E"/>
<path d="M112.558 24.9097C114.415 24.9097 115.903 26.4037 115.903 28.2332C115.903 30.0633 114.415 31.5569 112.558 31.5569C110.774 31.5569 109.288 30.0633 109.288 28.2332C109.288 26.4037 110.774 24.9097 112.558 24.9097ZM109.771 51.9663V34.4118C109.771 34.1347 109.995 33.9094 110.271 33.9094H114.919C115.195 33.9094 115.419 34.1347 115.419 34.4118V51.9663C115.419 52.244 115.195 52.4688 114.919 52.4688H110.271C109.995 52.4688 109.771 52.244 109.771 51.9663Z" fill="#354C5E"/>
<path d="M130.27 38.9559C130.228 39.2304 129.974 39.4146 129.7 39.378C129.349 39.3307 129.013 39.3137 128.629 39.3137C126.362 39.3137 124.318 40.6683 124.318 44.365V51.9654C124.318 52.2437 124.094 52.4688 123.818 52.4688H119.17C118.894 52.4688 118.67 52.2437 118.67 51.9654V34.4115C118.67 34.1339 118.894 33.9085 119.17 33.9085H123.632C123.909 33.9085 124.133 34.1339 124.133 34.4115V36.4115C125.099 34.3198 127.44 33.7223 128.926 33.7223C129.348 33.7223 130.017 33.7927 130.549 33.9053C130.809 33.9599 130.98 34.209 130.94 34.4729L130.27 38.9559Z" fill="#354C5E"/>
<path d="M150.713 43.1708C150.713 48.9213 146.439 53.0293 140.903 53.0293C135.403 53.0293 131.092 48.9213 131.092 43.1708C131.092 37.4201 135.403 33.3495 140.903 33.3495C146.439 33.3495 150.713 37.4201 150.713 43.1708ZM145.065 43.1708C145.065 40.0339 143.058 38.5773 140.903 38.5773C138.784 38.5773 136.741 40.0339 136.741 43.1708C136.741 46.2698 138.784 47.8018 140.903 47.8018C143.058 47.8018 145.065 46.3078 145.065 43.1708Z" fill="#354C5E"/>
<path d="M157.931 43.208C157.931 46.1585 159.901 47.8015 162.242 47.8015C164.207 47.8015 165.396 46.6919 165.916 45.4663C166.017 45.2278 166.275 45.1015 166.522 45.1766L170.577 46.4239C170.847 46.5066 170.993 46.7968 170.906 47.0669C169.915 50.1379 166.931 53.0293 162.242 53.0293C156.742 53.0293 152.32 48.9587 152.32 43.208C152.32 37.4201 156.63 33.3495 162.056 33.3495C166.892 33.3495 169.817 36.1802 170.799 39.3122C170.884 39.5828 170.736 39.8711 170.466 39.9526L166.342 41.2022C166.092 41.2779 165.831 41.1467 165.734 40.9041C165.233 39.6577 164.133 38.577 162.168 38.577C159.826 38.577 157.931 40.2204 157.931 43.208Z" fill="#354C5E"/>
<path d="M171.042 61.6028C170.996 61.5937 170.94 61.589 170.876 61.589H170.64C170.179 61.6258 169.745 61.7992 169.339 62.1081C168.932 62.4177 168.604 62.8214 168.355 63.32V61.6443H167.22V68.8735H168.438V64.4141C168.632 63.888 168.962 63.477 169.428 63.1815C169.894 62.8863 170.433 62.7293 171.042 62.7106V61.6028ZM159.672 64.7742C159.7 64.4328 159.781 64.1186 159.915 63.8324C160.048 63.5463 160.223 63.2993 160.441 63.0914C160.658 62.8839 160.91 62.7223 161.195 62.6068C161.482 62.4914 161.786 62.4338 162.109 62.4338C162.433 62.4338 162.737 62.4914 163.023 62.6068C163.31 62.7223 163.561 62.8816 163.778 63.0847C163.995 63.2879 164.175 63.5346 164.319 63.8254C164.461 64.1163 164.547 64.4328 164.575 64.7742H159.672ZM163.134 68.8735C163.467 68.7811 163.769 68.6542 164.042 68.4926C164.313 68.3312 164.554 68.1395 164.762 67.9179C164.969 67.6964 165.133 67.4517 165.253 67.184L164.201 66.8931C164.127 67.0779 164.018 67.2439 163.875 67.3915C163.732 67.5394 163.568 67.6639 163.384 67.7653C163.199 67.8671 163 67.9477 162.788 68.008C162.575 68.0679 162.359 68.098 162.137 68.098C161.823 68.098 161.525 68.0378 161.244 67.9179C160.962 67.7978 160.711 67.6318 160.489 67.4193C160.268 67.207 160.088 66.953 159.949 66.6575C159.81 66.3623 159.728 66.0343 159.7 65.6742H165.697C165.705 65.6283 165.713 65.5634 165.717 65.4804C165.722 65.3974 165.724 65.305 165.724 65.2033C165.724 64.7237 165.639 64.2595 165.468 63.8117C165.297 63.3639 165.055 62.9716 164.741 62.6346C164.427 62.2976 164.046 62.0275 163.598 61.8243C163.151 61.6215 162.654 61.5197 162.109 61.5197C161.565 61.5197 161.066 61.6191 160.614 61.8176C160.161 62.0161 159.771 62.2862 159.444 62.6276C159.116 62.9693 158.862 63.3662 158.682 63.8187C158.502 64.2712 158.412 64.7511 158.412 65.2589C158.412 65.7666 158.502 66.2492 158.682 66.706C158.862 67.1629 159.113 67.5625 159.437 67.9039C159.76 68.2456 160.148 68.5157 160.6 68.7142C161.052 68.9126 161.551 69.0117 162.096 69.0117C162.456 69.0117 162.802 68.9655 163.134 68.8735ZM156.861 64.5527C156.861 64.1186 156.826 63.717 156.757 63.3478C156.688 62.9786 156.57 62.6577 156.404 62.3852C156.238 62.1131 156.016 61.9006 155.739 61.7483C155.462 61.5957 155.116 61.5197 154.701 61.5197C154.063 61.5197 153.475 61.672 152.935 61.9766C152.395 62.2815 151.981 62.6878 151.695 63.1955V61.6443H150.587V68.8735H151.806V64.5112C151.889 64.2341 152.014 63.9803 152.18 63.7494C152.346 63.5188 152.54 63.32 152.762 63.1537C152.983 62.9877 153.219 62.8561 153.468 62.7591C153.717 62.6623 153.967 62.6138 154.216 62.6138C154.695 62.6138 155.054 62.7892 155.289 63.14C155.524 63.491 155.642 64.054 155.642 64.8295V68.8735H156.861V64.5527ZM149.023 67.5438C148.949 67.5903 148.812 67.6525 148.614 67.7309C148.416 67.8095 148.196 67.8487 147.956 67.8487C147.744 67.8487 147.559 67.7887 147.403 67.6686C147.245 67.5488 147.158 67.3547 147.14 67.0869V62.5998H148.76V61.6443H147.14V59.2345H145.921V61.6443H144.937V62.5998H145.921V67.4608C145.921 67.9778 146.082 68.3587 146.406 68.6034C146.728 68.848 147.112 68.9702 147.555 68.9702C147.749 68.9702 147.935 68.9541 148.116 68.922C148.296 68.8892 148.462 68.848 148.614 68.7972C148.767 68.7466 148.903 68.6957 149.023 68.6449C149.142 68.5943 149.239 68.5502 149.313 68.5133L149.023 67.5438ZM144.231 61.6028C144.185 61.5937 144.13 61.589 144.065 61.589H143.829C143.368 61.6258 142.934 61.7992 142.528 62.1081C142.122 62.4177 141.794 62.8214 141.545 63.32V61.6443H140.409V68.8735H141.628V64.4141C141.821 63.888 142.151 63.477 142.618 63.1815C143.084 62.8863 143.622 62.7293 144.231 62.7106V61.6028ZM134.149 67.9869C133.956 67.9132 133.787 67.8118 133.644 67.6823C133.501 67.5531 133.39 67.4008 133.312 67.2255C133.233 67.0501 133.194 66.8607 133.194 66.6575C133.194 66.2422 133.386 65.9051 133.768 65.6467C134.152 65.3884 134.648 65.2589 135.257 65.2589C135.895 65.2589 136.508 65.3743 137.1 65.6049V66.6716C137.1 66.8563 137.011 67.0363 136.836 67.2114C136.642 67.4795 136.359 67.694 135.984 67.8554C135.61 68.017 135.206 68.098 134.773 68.098C134.551 68.098 134.343 68.0612 134.149 67.9869ZM136.04 68.6726C136.534 68.4464 136.942 68.1164 137.265 67.6823L137.293 68.1947C137.321 68.3979 137.406 68.5712 137.549 68.7142C137.692 68.8574 137.884 68.9287 138.124 68.9287C138.216 68.9287 138.304 68.924 138.387 68.915C138.47 68.9056 138.577 68.8919 138.706 68.8735V67.8209C138.447 67.8118 138.318 67.6639 138.318 67.3778V64.4278C138.318 63.5048 138.053 62.7892 137.522 62.2815C136.991 61.7738 136.25 61.5197 135.299 61.5197C134.357 61.5197 133.42 61.8337 132.488 62.4615L132.89 63.2508C133.693 62.6878 134.459 62.406 135.188 62.406C135.798 62.406 136.268 62.5747 136.601 62.9114C136.933 63.2487 137.1 63.7126 137.1 64.3033V64.885C136.822 64.7742 136.504 64.6865 136.144 64.6219C135.784 64.5573 135.428 64.5249 135.077 64.5249C134.634 64.5249 134.226 64.5801 133.852 64.6909C133.478 64.8017 133.155 64.9543 132.882 65.1481C132.61 65.3419 132.4 65.5751 132.252 65.8476C132.105 66.12 132.03 66.4222 132.03 66.7546C132.03 67.0779 132.093 67.3754 132.218 67.6478C132.342 67.9203 132.513 68.1579 132.73 68.3611C132.947 68.5642 133.203 68.7235 133.499 68.8387C133.794 68.9541 134.113 69.0117 134.454 69.0117C135.017 69.0117 135.546 68.8986 136.04 68.6726ZM125.355 60.1486H128.139C128.379 60.1486 128.608 60.1994 128.825 60.3011C129.042 60.4029 129.231 60.5458 129.393 60.7302C129.554 60.915 129.684 61.1319 129.781 61.3812C129.877 61.6305 129.926 61.8983 129.926 62.1844C129.926 62.4615 129.884 62.7246 129.801 62.9739C129.718 63.223 129.602 63.4425 129.455 63.6316C129.307 63.821 129.129 63.9686 128.922 64.0747C128.714 64.1811 128.481 64.2341 128.223 64.2341H125.355V60.1486ZM125.355 68.8735V65.3419H128.292C128.725 65.3419 129.12 65.2542 129.476 65.0788C129.831 64.9034 130.136 64.6681 130.39 64.3726C130.644 64.0771 130.84 63.7404 130.978 63.3615C131.117 62.983 131.186 62.5907 131.186 62.1844C131.186 61.7966 131.112 61.416 130.965 61.0418C130.817 60.668 130.611 60.331 130.348 60.0311C130.085 59.7311 129.771 59.4909 129.407 59.3108C129.042 59.1308 128.642 59.0407 128.209 59.0407H124.109V68.8735H125.355Z" fill="#354C5E"/>
</g>
</g>
<defs>
<clipPath id="clip0_1305_923">
<rect width="200" height="90" fill="white"/>
</clipPath>
</defs>
</svg>
