<svg width="351" height="171" viewBox="0 0 351 171" fill="none" xmlns="http://www.w3.org/2000/svg">
<g clip-path="url(#clip0_1110_883)">
<rect width="350.667" height="170.667" fill="white"/>
<mask id="mask0_1110_883" style="mask-type:luminance" maskUnits="userSpaceOnUse" x="0" y="0" width="351" height="171">
<path d="M0 0.000961304H350.667V170.668H0V0.000961304Z" fill="white"/>
</mask>
<g mask="url(#mask0_1110_883)">
<path fill-rule="evenodd" clip-rule="evenodd" d="M25.4402 134.176V128.675C28.5702 128.331 31.2922 127.19 33.6172 125.249C35.9412 123.31 37.8122 120.641 39.2322 117.252L63.5432 59.3368C64.3862 57.3268 65.0042 55.4778 65.4012 53.7828C65.7942 52.0928 65.9942 50.4398 65.9942 48.8188L74.8302 37.7848H79.6602L111.488 119.463C112.668 122.311 114.324 124.476 116.461 125.949C118.597 127.423 121.438 128.331 124.973 128.675V134.176H79.6602L79.7332 128.675C84.0062 128.429 86.8542 127.914 88.2782 127.128C89.7032 126.342 90.4152 124.992 90.4152 123.072C90.4152 122.729 90.3292 122.213 90.1572 121.525C89.9862 120.838 89.7522 120.052 89.4582 119.167L82.6802 99.8628H53.8392L48.2932 113.717C47.7082 115.191 47.2702 116.626 46.9802 118.026C46.6852 119.425 46.5422 120.719 46.5422 121.898C46.5422 124.108 47.2092 125.729 48.5472 126.76C49.8852 127.791 52.1362 128.429 55.3002 128.675L55.3742 134.176H25.4402ZM56.4132 93.8388H79.6602L68.4462 63.0898L56.4132 93.8388Z" fill="#0E5DA2"/>
<path fill-rule="evenodd" clip-rule="evenodd" d="M209.331 105.887H215.356L214.963 120.964C211.615 125.474 206.732 128.978 200.311 131.474C193.891 133.974 186.548 135.223 178.284 135.223C171 135.223 164.05 133.884 157.432 131.207C150.815 128.532 144.7 124.59 139.093 119.384C134.665 115.259 131.293 110.487 128.98 105.059C126.668 99.6327 125.514 93.7507 125.514 87.4157C125.514 79.8027 127.073 72.6867 130.2 66.0557C133.327 59.4257 137.82 53.7287 143.681 48.9657C148.601 44.9377 154.077 41.8927 160.109 39.8307C166.138 37.7677 172.551 36.7367 179.345 36.7367C186.629 36.7367 193.301 37.8457 199.357 40.0637C205.41 42.2817 210.481 45.4617 214.57 49.5997L213.052 66.3347H208.521C206.017 58.8327 202.301 53.0707 197.373 49.0507C192.441 45.0317 186.618 43.0227 179.896 43.0227C169.887 43.0227 161.983 46.8367 156.196 54.4657C150.41 62.0947 147.516 72.5587 147.516 85.8527C147.516 99.5417 150.41 110.188 156.2 117.792C161.988 125.396 170.034 129.198 180.339 129.198C187.157 129.198 192.944 127.287 197.704 123.465C202.46 119.642 206.336 113.782 209.331 105.887Z" fill="#0E5DA2"/>
<path fill-rule="evenodd" clip-rule="evenodd" d="M282.533 116.372C282.533 120.989 283.401 124.066 285.136 125.613C286.871 127.161 290.456 128.004 295.891 128.151V134.176H250.054V128.151C255.018 128.004 258.398 127.1 260.195 125.43C261.988 123.76 262.888 120.744 262.888 116.372V52.5388C262.888 49.7638 262.618 48.0948 262.078 47.5338C261.537 46.9728 259.642 46.6898 256.397 46.6898H249.76C245.993 46.6898 242.503 47.9218 239.277 50.3818C236.053 52.8458 232.684 56.8518 229.169 62.4068H223.598L229.021 36.7368H234.444C236.204 38.1698 238.181 39.1838 240.379 39.7778C242.576 40.3708 245.9 40.6658 250.348 40.6658H253.962H306.561C310.167 40.4698 313.65 39.1598 317.01 36.7368H322.347L321.532 62.4068H316.122C313.6 56.8518 310.809 52.8458 307.748 50.3818C304.682 47.9218 300.954 46.6898 296.558 46.6898H288.111C285.86 46.6898 284.366 47.1078 283.634 47.9348C282.897 48.7618 282.533 50.5408 282.533 53.2668V116.372Z" fill="#0E5DA2"/>
</g>
</g>
<defs>
<clipPath id="clip0_1110_883">
<rect width="350.667" height="170.667" fill="white"/>
</clipPath>
</defs>
</svg>
