<svg width="200" height="90" viewBox="0 0 200 90" fill="none" xmlns="http://www.w3.org/2000/svg">
<rect width="200" height="90" fill="white"/>
<path fill-rule="evenodd" clip-rule="evenodd" d="M46 0.710602H154V89.5781H46V0.710602Z" fill="#123861"/>
<path d="M52.0918 64.5917H55.1281V70.5884H60.9577V64.5917H63.994V80.0391H60.9577V73.3643H55.1281V80.0391H52.0918V64.5917Z" fill="white"/>
<path d="M65.2363 68.4977H68.0352V75.2444C68.0352 76.1875 68.1666 76.8476 68.4294 77.2249C68.6922 77.6021 69.1455 77.7907 69.7894 77.7907C70.6829 77.7907 71.2578 77.4679 71.514 76.8222C71.7702 76.1766 71.9115 75.462 71.9378 74.6785C71.9378 74.5915 71.9378 74.4971 71.9378 74.3956C71.9378 74.294 71.9378 74.1997 71.9378 74.1127V68.4977H74.7366V80.0977H71.9378V78.3348C71.9115 78.3928 71.8852 78.4436 71.8589 78.4871C71.8326 78.5307 71.8064 78.5742 71.7801 78.6177C71.3727 79.2851 70.9424 79.7494 70.4891 80.0106C70.0357 80.2718 69.474 80.4023 68.8039 80.4023C68.0812 80.4023 67.434 80.221 66.8624 79.8583C66.2908 79.4955 65.8802 79.0095 65.6305 78.4001C65.6305 78.3856 65.6272 78.3747 65.6207 78.3675C65.6141 78.3602 65.6108 78.3493 65.6108 78.3348C65.4663 77.9721 65.3677 77.584 65.3152 77.1705C65.2626 76.7569 65.2363 76.2092 65.2363 75.5273V68.4977Z" fill="white"/>
<path d="M75.6992 76.4885H78.4265C78.5409 77.0961 78.757 77.523 79.0749 77.7689C79.3928 78.0149 79.8823 78.1379 80.5434 78.1379C81.1028 78.1379 81.5447 78.0366 81.8689 77.834C82.1931 77.6315 82.3552 77.3711 82.3552 77.0527C82.3552 76.9081 82.333 76.7851 82.2885 76.6838C82.244 76.5825 82.1581 76.4885 82.031 76.4017C81.942 76.3438 81.8276 76.2823 81.6877 76.2172C81.5479 76.1521 81.3698 76.0834 81.1537 76.011L78.1785 74.8391C77.4665 74.5786 76.9325 74.2205 76.5765 73.7648C76.2205 73.309 76.0425 72.7628 76.0425 72.1262C76.0425 71.0266 76.4494 70.1296 77.2631 69.4351C78.0768 68.7406 79.1258 68.3934 80.4099 68.3934C81.3126 68.3934 82.0914 68.5634 82.7462 68.9034C83.401 69.2434 83.8937 69.7317 84.2242 70.3683C84.2497 70.4262 84.2751 70.4768 84.3005 70.5202C84.326 70.5636 84.3514 70.6143 84.3768 70.6721C84.4404 70.8313 84.4944 70.9941 84.5389 71.1605C84.5834 71.3269 84.6311 71.5403 84.682 71.8007C84.682 71.8586 84.6883 71.9237 84.701 71.996C84.7137 72.0684 84.7265 72.1479 84.7392 72.2347L82.1073 72.213C82.031 71.7066 81.8657 71.3486 81.6114 71.1388C81.3571 70.929 80.9503 70.8241 80.3908 70.8241C79.8568 70.8241 79.4373 70.9145 79.1321 71.0954C78.827 71.2762 78.6744 71.5258 78.6744 71.8441C78.6744 71.9743 78.7125 72.0901 78.7888 72.1913C78.8651 72.2926 78.9668 72.3722 79.094 72.4301L83.3088 73.971C83.8682 74.188 84.3132 74.5425 84.6438 75.0344C84.9744 75.5263 85.1397 76.0834 85.1397 76.7055C85.1397 76.7489 85.1397 76.7923 85.1397 76.8357C85.1397 76.8791 85.1333 76.9225 85.1206 76.9659C85.0697 77.6604 84.8059 78.3187 84.3291 78.9409C83.8523 79.563 83.2834 79.9971 82.6222 80.243C82.5968 80.243 82.5682 80.2467 82.5364 80.2539C82.5046 80.2611 82.476 80.2647 82.4506 80.2647C82.1454 80.366 81.8339 80.4384 81.5161 80.4818C81.1982 80.5252 80.8422 80.5469 80.448 80.5469C78.9477 80.5469 77.7939 80.2033 76.9866 79.516C76.1792 78.8287 75.7501 77.8268 75.6992 76.5102V76.4885Z" fill="white"/>
<path d="M93.4801 84.7656V78.8858C93.0712 79.5222 92.6166 79.9706 92.1162 80.231C91.6157 80.4913 91.0131 80.6215 90.3082 80.6215C88.8985 80.6215 87.7708 80.0863 86.925 79.0159C86.0792 77.9456 85.6562 76.5208 85.6562 74.7416C85.6562 72.8612 86.0827 71.3461 86.9355 70.1961C87.7884 69.0462 88.9126 68.4712 90.3082 68.4712C91.0413 68.4712 91.6545 68.6267 92.1479 68.9377C92.6413 69.2487 93.0853 69.7658 93.4801 70.489V68.7533H96.4827V84.7656H93.4801ZM88.7223 74.5464C88.7223 75.6891 88.9267 76.5533 89.3355 77.1392C89.7444 77.725 90.3364 78.0179 91.1118 78.0179C91.9012 78.0179 92.4968 77.725 92.8986 77.1392C93.3003 76.5533 93.5012 75.6963 93.5012 74.5681C93.5012 73.4254 93.3003 72.5611 92.8986 71.9753C92.4968 71.3895 91.9012 71.0966 91.1118 71.0966C90.3364 71.0966 89.7444 71.3895 89.3355 71.9753C88.9267 72.5611 88.7223 73.4254 88.7223 74.5681V74.5464Z" fill="white"/>
<path d="M97.0273 68.8875H99.9775L101.655 75.3844C101.745 75.7623 101.829 76.1293 101.906 76.4854C101.983 76.8415 102.06 77.2012 102.137 77.5646C102.176 77.3902 102.214 77.2121 102.253 77.0304C102.291 76.8488 102.336 76.6634 102.388 76.4745C102.426 76.3001 102.465 76.122 102.503 75.9403C102.542 75.7587 102.581 75.5806 102.619 75.4062L104.316 68.8875H107.247L103.525 80.5078H100.672L97.0273 68.8875Z" fill="white"/>
<path d="M106.988 72.8367C107.055 71.4853 107.469 70.4861 108.229 69.8391C108.989 69.1922 110.116 68.8687 111.609 68.8687C112.703 68.8687 113.603 69.0196 114.309 69.3215C115.016 69.6235 115.516 70.0835 115.81 70.7017C115.81 70.7161 115.813 70.7269 115.82 70.7341C115.826 70.7413 115.83 70.7449 115.83 70.7449C115.963 71.018 116.053 71.3199 116.1 71.6506C116.146 71.9813 116.17 72.4701 116.17 73.1171V78.3143V78.875C116.17 79.292 116.213 79.6406 116.3 79.921C116.386 80.2013 116.516 80.4421 116.69 80.6434H113.809C113.743 80.5428 113.683 80.4493 113.629 80.363C113.576 80.2768 113.536 80.1905 113.509 80.1043C113.456 79.9749 113.416 79.8347 113.389 79.6837C113.363 79.5328 113.349 79.3495 113.349 79.1338C113.163 79.3495 112.986 79.5472 112.819 79.7269C112.653 79.9066 112.489 80.0611 112.329 80.1905C111.969 80.4781 111.596 80.6757 111.209 80.7836C110.822 80.8914 110.356 80.9453 109.809 80.9453C108.875 80.9453 108.115 80.6326 107.529 80.0072C106.942 79.3818 106.648 78.5587 106.648 77.538C106.648 76.546 106.878 75.7588 107.339 75.1766C107.799 74.5943 108.522 74.1881 109.509 73.9581C110.016 73.8431 110.582 73.7353 111.209 73.6346C111.836 73.534 112.529 73.4477 113.289 73.3759C113.289 72.6858 113.199 72.1646 113.019 71.8124C112.839 71.4601 112.376 71.284 111.629 71.284C111.002 71.284 110.536 71.4026 110.229 71.6398C109.922 71.8771 109.722 72.2832 109.629 72.8583L106.988 72.8367ZM113.349 75.2736C113.096 75.3311 112.873 75.3742 112.679 75.403C112.486 75.4318 112.316 75.4533 112.169 75.4677C112.076 75.4965 111.989 75.518 111.909 75.5324C111.829 75.5468 111.749 75.5611 111.669 75.5755C111.602 75.5899 111.539 75.6043 111.479 75.6187C111.419 75.633 111.356 75.6474 111.289 75.6618C110.622 75.8056 110.156 75.9961 109.889 76.2333C109.622 76.4705 109.489 76.8119 109.489 77.2576C109.489 77.6458 109.626 77.9585 109.899 78.1957C110.172 78.4329 110.529 78.5516 110.969 78.5516C111.956 78.5516 112.599 78.2353 112.899 77.6027C113.199 76.9701 113.349 76.2009 113.349 75.2952V75.2736Z" fill="white"/>
<path d="M117.57 69.0858H120.527V70.9148C120.832 70.3052 121.228 69.8116 121.713 69.4342C122.199 69.0568 122.699 68.8463 123.212 68.8027C123.24 68.8027 123.264 68.8027 123.285 68.8027C123.306 68.8027 123.33 68.8027 123.358 68.8027L123.441 68.781C123.525 68.7955 123.615 68.8064 123.712 68.8136C123.809 68.8209 123.906 68.8318 124.004 68.8463V71.96C123.948 71.9745 123.896 71.9781 123.847 71.9709C123.799 71.9636 123.747 71.96 123.691 71.96C123.664 71.96 123.636 71.9564 123.608 71.9491C123.58 71.9418 123.553 71.9382 123.525 71.9382C123.441 71.9382 123.362 71.9346 123.285 71.9273C123.209 71.9201 123.129 71.9164 123.046 71.9164C122.213 71.9164 121.585 72.1632 121.162 72.6568C120.738 73.1503 120.527 73.8834 120.527 74.8559V80.6914H117.57V69.0858Z" fill="white"/>
<path d="M124.961 69.249H127.71V70.9392C127.775 70.8536 127.839 70.7609 127.904 70.6611C127.968 70.5612 128.033 70.4685 128.097 70.3829C128.484 69.8694 128.888 69.5057 129.307 69.2918C129.727 69.0778 130.233 68.9709 130.827 68.9709C131.55 68.9709 132.211 69.1741 132.811 69.5806C133.412 69.9871 133.815 70.5042 134.021 71.1317C134.125 71.4313 134.196 71.7664 134.234 72.1373C134.273 72.5081 134.292 72.9859 134.292 73.5707V80.6523H131.543V73.8061C131.543 73.0501 131.408 72.4867 131.137 72.1159C130.866 71.745 130.446 71.5596 129.878 71.5596C129.014 71.5596 128.439 71.8877 128.155 72.5438C127.871 73.1999 127.723 73.9202 127.71 74.7046C127.71 74.7332 127.71 74.7617 127.71 74.7902C127.71 74.8187 127.71 74.8473 127.71 74.8758V80.6523H124.961V69.249Z" fill="white"/>
<path d="M135.541 72.8481C135.608 71.4432 136.021 70.4045 136.781 69.732C137.541 69.0594 138.668 68.7232 140.162 68.7232C141.255 68.7232 142.155 68.8801 142.862 69.1939C143.569 69.5078 144.069 69.9861 144.362 70.6287C144.362 70.6436 144.366 70.6549 144.372 70.6623C144.379 70.6698 144.382 70.6735 144.382 70.6735C144.516 70.9575 144.606 71.2714 144.652 71.6151C144.699 71.9589 144.722 72.467 144.722 73.1395V78.5423V79.1252C144.722 79.5586 144.766 79.921 144.852 80.2125C144.939 80.5039 145.069 80.7542 145.242 80.9635H142.362C142.295 80.8589 142.235 80.7617 142.182 80.6721C142.129 80.5824 142.089 80.4927 142.062 80.403C142.009 80.2685 141.969 80.1228 141.942 79.9659C141.915 79.809 141.902 79.6184 141.902 79.3942C141.715 79.6184 141.539 79.8239 141.372 80.0107C141.205 80.1975 141.042 80.3582 140.882 80.4927C140.522 80.7916 140.148 80.9971 139.762 81.1092C139.375 81.2213 138.908 81.2773 138.362 81.2773C137.428 81.2773 136.668 80.9523 136.081 80.3022C135.495 79.652 135.201 78.7964 135.201 77.7353C135.201 76.704 135.431 75.8858 135.891 75.2805C136.351 74.6752 137.075 74.253 138.062 74.0139C138.568 73.8943 139.135 73.7822 139.762 73.6776C140.389 73.573 141.082 73.4833 141.842 73.4086C141.842 72.6912 141.752 72.1494 141.572 71.7832C141.392 71.4171 140.929 71.234 140.182 71.234C139.555 71.234 139.088 71.3573 138.782 71.6039C138.475 71.8505 138.275 72.2727 138.182 72.8705L135.541 72.8481ZM141.902 75.3814C141.649 75.4411 141.425 75.486 141.232 75.5159C141.039 75.5458 140.869 75.5682 140.722 75.5831C140.629 75.613 140.542 75.6354 140.462 75.6504C140.382 75.6653 140.302 75.6803 140.222 75.6952C140.155 75.7102 140.092 75.7251 140.032 75.7401C139.972 75.755 139.908 75.7699 139.842 75.7849C139.175 75.9343 138.708 76.1324 138.442 76.379C138.175 76.6256 138.042 76.9805 138.042 77.4438C138.042 77.8474 138.178 78.1724 138.452 78.419C138.725 78.6656 139.082 78.7889 139.522 78.7889C140.509 78.7889 141.152 78.4601 141.452 77.8025C141.752 77.1449 141.902 76.3453 141.902 75.4038V75.3814Z" fill="white"/>
<path d="M146.164 66.3561C146.646 66.3561 147.082 66.5526 147.398 66.8703C147.714 67.188 147.909 67.6269 147.909 68.1116C147.909 68.5964 147.714 69.0353 147.398 69.353C147.082 69.6707 146.646 69.8672 146.164 69.8672C145.682 69.8672 145.245 69.6707 144.929 69.353C144.613 69.0353 144.418 68.5964 144.418 68.1116C144.418 67.6269 144.613 67.188 144.929 66.8703C145.245 66.5526 145.682 66.3561 146.164 66.3561ZM147.191 67.0785C146.928 66.8141 146.565 66.6506 146.164 66.6506C145.762 66.6506 145.399 66.8141 145.136 67.0785C144.873 67.3429 144.711 67.7082 144.711 68.1116C144.711 68.5151 144.873 68.8804 145.136 69.1448C145.399 69.4092 145.762 69.5727 146.164 69.5727C146.565 69.5727 146.928 69.4092 147.191 69.1448C147.454 68.8804 147.616 68.5151 147.616 68.1116C147.616 67.7082 147.454 67.3429 147.191 67.0785Z" fill="white"/>
<path d="M145.26 69.1172V67.0964H146.114C146.329 67.0964 146.485 67.1148 146.582 67.151C146.679 67.1872 146.757 67.2517 146.816 67.3444C146.874 67.4375 146.903 67.5434 146.903 67.6629C146.903 67.8144 146.859 67.94 146.77 68.0388C146.682 68.1371 146.549 68.1997 146.373 68.2251C146.461 68.2769 146.533 68.3333 146.59 68.395C146.647 68.4566 146.724 68.5658 146.821 68.7229L147.067 69.1172H146.581L146.288 68.6773C146.184 68.5201 146.113 68.4213 146.074 68.3804C146.036 68.3395 145.995 68.3117 145.952 68.2962C145.909 68.2811 145.841 68.2736 145.748 68.2736H145.666V69.1172H145.26ZM145.666 67.9508H145.966C146.16 67.9508 146.282 67.9428 146.331 67.9264C146.379 67.9099 146.417 67.8812 146.444 67.8407C146.471 67.8003 146.485 67.7499 146.485 67.6892C146.485 67.621 146.467 67.5664 146.431 67.5246C146.395 67.4827 146.344 67.4563 146.278 67.445C146.245 67.4408 146.147 67.4385 145.982 67.4385H145.666V67.9508Z" fill="white"/>
<path fill-rule="evenodd" clip-rule="evenodd" d="M79.2667 10.064C79.0334 13.5828 79.2599 16.8289 81.6106 18.8151C82.3065 19.2022 82.0823 19.3092 81.6106 19.8235C78.3226 23.6298 77.4144 32.8439 77.7543 38.9135C77.9452 52.5378 83.1762 58.2354 90.844 60.1005C94.7651 61.0542 104.269 61.2766 108.342 60.5507C122.345 58.055 123.087 43.1471 121.944 31.5793C121.347 25.5364 119.994 21.9626 118.168 19.9381C117.905 19.6641 117.875 19.6449 118.168 19.4394C120.286 17.7378 121.115 14.7744 120.721 10.6125C118.06 9.06433 115.399 8.08803 112.738 7.47075C112.72 11.799 112.712 14.4148 110.378 14.9839C108.228 15.5082 104.227 14.3198 104.234 11.1362C104.267 9.49878 104.3 7.8614 104.333 6.22402C101.186 5.33248 98.2979 5.28698 95.6799 6.12427C96.154 11.762 95.8952 13.9718 91.9547 14.6334C86.715 15.5132 87.2243 11.4599 87.3494 7.17153C84.5067 7.68779 81.8448 8.74961 79.2667 10.064Z" fill="white"/>
<path fill-rule="evenodd" clip-rule="evenodd" d="M85.2931 27.5494C86.1939 21.9429 88.6566 19.5674 96.3262 19.7365C99.5493 19.7365 101.636 19.6222 104.89 19.8404C110.131 20.3434 112.991 21.1251 114.381 26.5499C115.422 30.615 115.306 38.8619 114.973 42.978C114.333 50.8763 112.45 54.3568 104.333 54.1685C100.722 54.0848 97.0752 54.3955 93.5162 53.7309C85.7306 53.1968 85.1881 47.734 84.8801 41.1111C84.6526 36.2215 84.7983 32.3731 85.2931 27.5494Z" fill="#143B61"/>
<path d="M89.5391 23.7906H95.6161V29.6502C95.6161 32.1124 95.1901 33.0404 97.5984 33.0404L102.185 33.0404C104.548 33.0404 104.233 32.9358 104.233 30.6226V23.7906H110.503V49.7422H104.345C104.339 46.9492 104.308 44.4303 104.324 41.6373C104.338 39.0558 104.561 38.9155 101.771 38.8861C97.2768 38.8389 95.7153 38.3101 95.7153 40.4158V49.6175H89.5391V23.7906Z" fill="white"/>
</svg>
