<svg width="200" height="90" viewBox="0 0 200 90" fill="none" xmlns="http://www.w3.org/2000/svg">
<rect width="200" height="90" fill="white"/>
<path fill-rule="evenodd" clip-rule="evenodd" d="M50 4.00041H150V86.2852H50V4.00041Z" fill="#123861"/>
<path d="M55.6401 63.15H58.4515V68.7025H63.8493V63.15H66.6607V77.4531H63.8493V71.2728H58.4515V77.4531H55.6401V63.15Z" fill="white"/>
<path d="M67.8115 66.7662H70.403V73.0132C70.403 73.8864 70.5247 74.4977 70.768 74.8469C71.0114 75.1962 71.4311 75.3709 72.0273 75.3709C72.8546 75.3709 73.3869 75.072 73.6242 74.4741C73.8614 73.8763 73.9922 73.2147 74.0166 72.4892C74.0166 72.4086 74.0166 72.3213 74.0166 72.2273C74.0166 72.1332 74.0166 72.0459 74.0166 71.9653V66.7662H76.6081V77.5069H74.0166V75.8747C73.9922 75.9284 73.9679 75.9754 73.9435 76.0157C73.9192 76.056 73.8949 76.0963 73.8705 76.1366C73.4934 76.7546 73.0949 77.1845 72.6752 77.4263C72.2554 77.6682 71.7353 77.7891 71.1148 77.7891C70.4456 77.7891 69.8464 77.6211 69.3172 77.2853C68.7879 76.9494 68.4077 76.4994 68.1765 75.9351C68.1765 75.9217 68.1735 75.9116 68.1674 75.9049C68.1613 75.8982 68.1583 75.8881 68.1583 75.8747C68.0244 75.5388 67.9332 75.1794 67.8845 74.7966C67.8359 74.4137 67.8115 73.9065 67.8115 73.2751V66.7662Z" fill="white"/>
<path d="M77.499 74.1641H80.0243C80.1302 74.7268 80.3303 75.122 80.6246 75.3497C80.919 75.5774 81.3722 75.6913 81.9844 75.6913C82.5024 75.6913 82.9115 75.5975 83.2117 75.41C83.5119 75.2224 83.662 74.9813 83.662 74.6866C83.662 74.5526 83.6414 74.4387 83.6002 74.345C83.559 74.2512 83.4795 74.1641 83.3618 74.0837C83.2794 74.0301 83.1734 73.9732 83.0439 73.9129C82.9144 73.8526 82.7496 73.789 82.5495 73.722L79.7947 72.6369C79.1354 72.3957 78.641 72.0642 78.3113 71.6422C77.9817 71.2202 77.8169 70.7144 77.8169 70.125C77.8169 69.1068 78.1936 68.2762 78.9471 67.6332C79.7005 66.9901 80.6717 66.6686 81.8608 66.6686C82.6966 66.6686 83.4177 66.826 84.024 67.1409C84.6303 67.4557 85.0865 67.9078 85.3926 68.4973C85.4161 68.5509 85.4396 68.5978 85.4632 68.6379C85.4867 68.6781 85.5103 68.725 85.5338 68.7786C85.5927 68.926 85.6427 69.0767 85.6839 69.2308C85.7251 69.3848 85.7693 69.5824 85.8164 69.8236C85.8164 69.8771 85.8223 69.9374 85.834 70.0044C85.8458 70.0714 85.8576 70.1451 85.8693 70.2255L83.4324 70.2054C83.3618 69.7365 83.2087 69.4049 82.9733 69.2107C82.7378 69.0164 82.3611 68.9193 81.8431 68.9193C81.3487 68.9193 80.9602 69.003 80.6776 69.1705C80.3951 69.3379 80.2538 69.569 80.2538 69.8637C80.2538 69.9843 80.2891 70.0915 80.3598 70.1853C80.4304 70.279 80.5246 70.3527 80.6423 70.4063L84.5449 71.8331C85.0629 72.034 85.475 72.3622 85.7811 72.8177C86.0871 73.2732 86.2402 73.789 86.2402 74.365C86.2402 74.4052 86.2402 74.4454 86.2402 74.4856C86.2402 74.5258 86.2343 74.566 86.2225 74.6062C86.1754 75.2492 85.9312 75.8588 85.4897 76.4348C85.0482 77.0109 84.5214 77.4128 83.9092 77.6405C83.8857 77.6405 83.8592 77.6439 83.8297 77.6506C83.8003 77.6573 83.7738 77.6606 83.7503 77.6606C83.4677 77.7544 83.1793 77.8214 82.885 77.8616C82.5907 77.9018 82.261 77.9219 81.8961 77.9219C80.5069 77.9219 79.4386 77.6037 78.691 76.9674C77.9434 76.331 77.5461 75.4033 77.499 74.1842V74.1641Z" fill="white"/>
<path d="M93.9625 81.8301V76.3858C93.584 76.9751 93.163 77.3902 92.6997 77.6313C92.2363 77.8724 91.6783 77.9929 91.0257 77.9929C89.7204 77.9929 88.6762 77.4974 87.893 76.5063C87.1098 75.5152 86.7183 74.196 86.7183 72.5486C86.7183 70.8075 87.1131 69.4046 87.9028 68.3398C88.6925 67.2751 89.7334 66.7427 91.0257 66.7427C91.7044 66.7427 92.2722 66.8867 92.729 67.1746C93.1859 67.4626 93.597 67.9414 93.9625 68.611V67.0038H96.7427V81.8301H93.9625ZM89.5572 72.3678C89.5572 73.4259 89.7465 74.2261 90.125 74.7685C90.5035 75.311 91.0518 75.5822 91.7697 75.5822C92.5006 75.5822 93.0521 75.311 93.4241 74.7685C93.7961 74.2261 93.9821 73.4326 93.9821 72.3879C93.9821 71.3298 93.7961 70.5296 93.4241 69.9872C93.0521 69.4447 92.5006 69.1735 91.7697 69.1735C91.0518 69.1735 90.5035 69.4447 90.125 69.9872C89.7465 70.5296 89.5572 71.3298 89.5572 72.3879V72.3678Z" fill="white"/>
<path d="M97.2485 67.1291H99.9802L101.533 73.1448C101.617 73.4947 101.694 73.8345 101.766 74.1642C101.837 74.4939 101.908 74.827 101.98 75.1634C102.016 75.002 102.051 74.8371 102.087 74.6689C102.123 74.5007 102.164 74.3291 102.212 74.1541C102.248 73.9926 102.283 73.8278 102.319 73.6595C102.355 73.4913 102.39 73.3265 102.426 73.165L103.997 67.1291H106.711L103.265 77.8887H100.623L97.2485 67.1291Z" fill="white"/>
<path d="M106.47 70.7792C106.532 69.5278 106.915 68.6026 107.618 68.0036C108.322 67.4046 109.366 67.105 110.748 67.105C111.761 67.105 112.594 67.2448 113.249 67.5244C113.903 67.8039 114.366 68.2299 114.638 68.8023C114.638 68.8156 114.641 68.8256 114.647 68.8323C114.653 68.8389 114.656 68.8423 114.656 68.8423C114.78 69.0952 114.863 69.3747 114.906 69.6809C114.95 69.9871 114.971 70.4397 114.971 71.0387V75.851V76.3702C114.971 76.7562 115.011 77.079 115.092 77.3386C115.172 77.5982 115.292 77.8212 115.453 78.0076H112.786C112.724 77.9144 112.668 77.8278 112.619 77.748C112.57 77.6681 112.533 77.5882 112.508 77.5084C112.459 77.3886 112.422 77.2588 112.397 77.119C112.372 76.9792 112.36 76.8095 112.36 76.6098C112.187 76.8095 112.023 76.9925 111.869 77.1589C111.715 77.3253 111.563 77.4684 111.415 77.5882C111.082 77.8545 110.736 78.0375 110.378 78.1374C110.02 78.2372 109.588 78.2871 109.082 78.2871C108.217 78.2871 107.513 77.9976 106.97 77.4185C106.427 76.8394 106.155 76.0773 106.155 75.1322C106.155 74.2136 106.368 73.4848 106.794 72.9457C107.22 72.4065 107.89 72.0305 108.804 71.8175C109.273 71.711 109.798 71.6111 110.378 71.518C110.958 71.4248 111.6 71.3449 112.304 71.2784C112.304 70.6394 112.221 70.1568 112.054 69.8307C111.888 69.5045 111.458 69.3415 110.767 69.3415C110.187 69.3415 109.755 69.4513 109.471 69.6709C109.187 69.8906 109.001 70.2666 108.915 70.7991L106.47 70.7792ZM112.36 73.0355C112.125 73.0888 111.918 73.1287 111.739 73.1553C111.56 73.182 111.403 73.2019 111.267 73.2152C111.181 73.2419 111.1 73.2618 111.026 73.2751C110.952 73.2885 110.878 73.3018 110.804 73.3151C110.742 73.3284 110.684 73.3417 110.628 73.355C110.573 73.3683 110.514 73.3816 110.452 73.395C109.835 73.5281 109.403 73.7045 109.156 73.9241C108.909 74.1437 108.785 74.4599 108.785 74.8726C108.785 75.232 108.912 75.5215 109.165 75.7412C109.418 75.9608 109.748 76.0707 110.156 76.0707C111.069 76.0707 111.665 75.7778 111.943 75.1921C112.221 74.6063 112.36 73.8942 112.36 73.0555V73.0355Z" fill="white"/>
<path d="M116.269 67.3127H119.006V69.0062C119.289 68.4417 119.655 67.9847 120.105 67.6352C120.555 67.2858 121.017 67.0909 121.493 67.0506C121.518 67.0506 121.541 67.0506 121.56 67.0506C121.579 67.0506 121.602 67.0506 121.628 67.0506L121.705 67.0304C121.782 67.0438 121.865 67.0539 121.955 67.0606C122.045 67.0674 122.135 67.0774 122.225 67.0909V69.9739C122.174 69.9874 122.126 69.9907 122.081 69.984C122.036 69.9773 121.988 69.9739 121.936 69.9739C121.91 69.9739 121.885 69.9706 121.859 69.9639C121.833 69.9571 121.808 69.9538 121.782 69.9538C121.705 69.9538 121.631 69.9504 121.56 69.9437C121.49 69.937 121.416 69.9336 121.339 69.9336C120.567 69.9336 119.986 70.1621 119.594 70.6191C119.202 71.0761 119.006 71.7548 119.006 72.6554V78.0586H116.269V67.3127Z" fill="white"/>
<path d="M123.112 67.4609H125.658V69.0259C125.718 68.9466 125.777 68.8608 125.837 68.7683C125.897 68.6759 125.957 68.59 126.016 68.5108C126.375 68.0354 126.748 67.6986 127.137 67.5005C127.525 67.3024 127.994 67.2034 128.544 67.2034C129.213 67.2034 129.826 67.3915 130.381 67.7679C130.937 68.1443 131.31 68.6231 131.502 69.2041C131.597 69.4815 131.663 69.7918 131.699 70.1352C131.735 70.4786 131.753 70.921 131.753 71.4625V78.0195H129.207V71.6804C129.207 70.9804 129.082 70.4588 128.831 70.1154C128.58 69.772 128.191 69.6003 127.665 69.6003C126.865 69.6003 126.333 69.9041 126.07 70.5116C125.807 71.1191 125.67 71.786 125.658 72.5124C125.658 72.5388 125.658 72.5652 125.658 72.5916C125.658 72.618 125.658 72.6445 125.658 72.6709V78.0195H123.112V67.4609Z" fill="white"/>
<path d="M132.909 70.7928C132.971 69.492 133.354 68.5302 134.057 67.9075C134.761 67.2848 135.805 66.9734 137.187 66.9734C138.2 66.9734 139.033 67.1187 139.688 67.4093C140.342 67.6999 140.805 68.1428 141.077 68.7378C141.077 68.7516 141.08 68.762 141.086 68.7689C141.092 68.7759 141.095 68.7793 141.095 68.7793C141.219 69.0422 141.302 69.3329 141.345 69.6511C141.389 69.9694 141.41 70.4399 141.41 71.0627V76.0652V76.6049C141.41 77.0062 141.45 77.3418 141.531 77.6117C141.611 77.8815 141.731 78.1133 141.892 78.3071H139.225C139.163 78.2102 139.107 78.1202 139.058 78.0372C139.009 77.9542 138.972 77.8711 138.947 77.7881C138.898 77.6636 138.86 77.5286 138.836 77.3833C138.811 77.238 138.799 77.0616 138.799 76.854C138.626 77.0616 138.462 77.2519 138.308 77.4248C138.154 77.5978 138.002 77.7466 137.854 77.8711C137.521 78.1479 137.175 78.3382 136.817 78.442C136.459 78.5458 136.027 78.5977 135.521 78.5977C134.656 78.5977 133.952 78.2967 133.409 77.6947C132.866 77.0927 132.594 76.3005 132.594 75.318C132.594 74.3631 132.807 73.6055 133.233 73.045C133.659 72.4845 134.329 72.0936 135.243 71.8722C135.712 71.7615 136.237 71.6577 136.817 71.5608C137.397 71.464 138.039 71.3809 138.743 71.3117C138.743 70.6475 138.66 70.1459 138.493 69.8068C138.326 69.4678 137.897 69.2983 137.206 69.2983C136.626 69.2983 136.193 69.4124 135.909 69.6408C135.625 69.8691 135.44 70.26 135.354 70.8136L132.909 70.7928ZM138.799 73.1384C138.564 73.1938 138.357 73.2353 138.178 73.263C137.999 73.2906 137.842 73.3114 137.706 73.3252C137.62 73.3529 137.539 73.3737 137.465 73.3875C137.391 73.4013 137.317 73.4152 137.243 73.429C137.181 73.4429 137.123 73.4567 137.067 73.4705C137.011 73.4844 136.953 73.4982 136.891 73.512C136.274 73.6504 135.842 73.8338 135.595 74.0621C135.348 74.2905 135.224 74.6191 135.224 75.0481C135.224 75.4217 135.351 75.7227 135.604 75.9511C135.857 76.1794 136.187 76.2936 136.595 76.2936C137.508 76.2936 138.104 75.9891 138.382 75.3802C138.66 74.7713 138.799 74.031 138.799 73.1592V73.1384Z" fill="white"/>
<path d="M142.743 64.7783C143.19 64.7783 143.594 64.9602 143.886 65.2544C144.179 65.5486 144.36 65.9549 144.36 66.4038C144.36 66.8527 144.179 67.259 143.886 67.5532C143.594 67.8474 143.19 68.0293 142.743 68.0293C142.297 68.0293 141.893 67.8473 141.6 67.5532C141.308 67.259 141.127 66.8527 141.127 66.4038C141.127 65.9549 141.308 65.5486 141.6 65.2544C141.893 64.9602 142.297 64.7783 142.743 64.7783ZM143.694 65.4472C143.451 65.2024 143.115 65.051 142.743 65.051C142.372 65.051 142.035 65.2024 141.792 65.4472C141.549 65.692 141.398 66.0302 141.398 66.4038C141.398 66.7774 141.549 67.1156 141.792 67.3604C142.035 67.6052 142.372 67.7566 142.743 67.7566C143.115 67.7566 143.451 67.6052 143.694 67.3604C143.938 67.1156 144.088 66.7774 144.088 66.4038C144.088 66.0302 143.938 65.692 143.694 65.4472Z" fill="white"/>
<path d="M141.907 67.3398V65.4688H142.698C142.897 65.4688 143.041 65.4857 143.131 65.5193C143.221 65.5528 143.293 65.6125 143.347 65.6983C143.402 65.7846 143.428 65.8826 143.428 65.9933C143.428 66.1335 143.387 66.2499 143.305 66.3414C143.224 66.4324 143.101 66.4903 142.937 66.5139C143.019 66.5618 143.086 66.6141 143.139 66.6711C143.192 66.7282 143.263 66.8293 143.352 66.9748L143.58 67.3398H143.13L142.859 66.9325C142.762 66.787 142.696 66.6955 142.661 66.6576C142.625 66.6197 142.588 66.594 142.548 66.5796C142.508 66.5657 142.445 66.5587 142.359 66.5587H142.283V67.3398H141.907ZM142.283 66.2599H142.56C142.741 66.2599 142.853 66.2525 142.898 66.2372C142.943 66.222 142.978 66.1954 143.004 66.1579C143.029 66.1205 143.042 66.0739 143.042 66.0177C143.042 65.9545 143.025 65.904 142.991 65.8652C142.958 65.8264 142.911 65.802 142.85 65.7916C142.819 65.7876 142.728 65.7855 142.576 65.7855H142.283V66.2599Z" fill="white"/>
<path fill-rule="evenodd" clip-rule="evenodd" d="M80.8021 12.6598C80.586 15.9179 80.7957 18.9236 82.9723 20.7627C83.6167 21.1211 83.4091 21.2202 82.9723 21.6964C79.9279 25.2207 79.087 33.7523 79.4017 39.3723C79.5785 51.9874 84.422 57.263 91.5218 58.9899C95.1524 59.873 103.952 60.0788 107.723 59.4067C120.69 57.0959 121.377 43.2923 120.318 32.5814C119.765 26.9861 118.513 23.6771 116.821 21.8025C116.579 21.5488 116.55 21.531 116.821 21.3408C118.783 19.7652 119.551 17.0213 119.186 13.1677C116.722 11.7342 114.258 10.8302 111.794 10.2586C111.777 14.2663 111.77 16.6883 109.609 17.2153C107.618 17.7007 103.914 16.6004 103.92 13.6525C103.95 12.1365 103.981 10.6204 104.011 9.10427C101.098 8.27877 98.4235 8.23664 95.9995 9.01191C96.4384 14.232 96.1989 16.2781 92.5502 16.8907C87.6986 17.7053 88.1702 13.9523 88.286 9.98159C85.6539 10.4596 83.1892 11.4428 80.8021 12.6598Z" fill="white"/>
<path fill-rule="evenodd" clip-rule="evenodd" d="M86.3817 28.8499C87.2158 23.6586 89.496 21.4591 96.5975 21.6157C99.5819 21.6157 101.514 21.5099 104.527 21.7119C109.38 22.1776 112.028 22.9014 113.315 27.9244C114.279 31.6884 114.172 39.3244 113.863 43.1356C113.27 50.4488 111.527 53.6715 104.012 53.4972C100.668 53.4196 97.291 53.7073 93.9957 53.092C86.7868 52.5975 86.2845 47.5393 85.9993 41.407C85.7887 36.8796 85.9235 33.3162 86.3817 28.8499Z" fill="#143B61"/>
<path d="M90.313 25.3672H95.9399V30.7928C95.9399 33.0726 95.5454 33.9319 97.7754 33.9319L102.022 33.9319C104.21 33.9319 103.919 33.835 103.919 31.6932V25.3672H109.724V49.3965H104.022C104.016 46.8104 103.988 44.4781 104.002 41.8919C104.016 39.5017 104.222 39.3717 101.639 39.3446C97.4776 39.3008 96.0317 38.8113 96.0317 40.7609V49.2811H90.313V25.3672Z" fill="white"/>
</svg>
