<svg width="200" height="90" viewBox="0 0 200 90" fill="none" xmlns="http://www.w3.org/2000/svg">
<rect width="200" height="90" fill="white"/>
<path fill-rule="evenodd" clip-rule="evenodd" d="M51.6989 44.9507C51.6989 41.0832 55.0477 38 61.3521 38C67.6588 38 71.0424 41.0832 71.0424 44.9507C71.0424 48.8732 67.8525 52 61.3891 52C54.9235 52 51.6989 48.8732 51.6989 44.9507ZM58.0108 44.8691C57.9685 47.3481 58.9801 49.842 61.2826 49.8822C63.6546 49.9258 64.6741 47.4048 64.7164 44.985C64.7631 42.4188 63.6238 40.1389 61.4666 40.1009C59.3095 40.0649 58.0575 42.3028 58.0108 44.8691ZM11.1163 40.3259L17.4502 51.604L24.7817 51.6095L31.0068 40.3259H34.1271V38.2822H24.7412V40.3259H27.4523L22.9192 48.5399L18.3262 40.3259H21.6209L21.6187 38.2822H8.0022L8 40.3259H11.1163ZM91.8027 40.3204V38.2822L104.36 38.2839V40.3221H101.231V49.5277H104.131C106.817 49.5277 108.579 47.7877 108.579 45.4283H110.65V51.5926L91.8027 51.5943V49.5294H94.9679L94.9639 40.3204H91.8027ZM132.067 40.3259L138.399 51.604L145.732 51.6095L151.957 40.3259H155.078V38.2822H145.692V40.3259H148.403L143.87 48.5399L139.277 40.3259H142.57V38.2822H128.953L128.951 40.3259H132.067ZM172.656 44.9507C172.656 41.0832 176.005 38 182.309 38C188.616 38 192 41.0832 192 44.9507C192 48.8732 188.81 52 182.346 52C175.881 52 172.656 48.8732 172.656 44.9507ZM178.968 44.8691C178.926 47.3481 179.937 49.842 182.24 49.8822C184.61 49.9258 185.63 47.4048 185.672 44.985C185.718 42.4188 184.581 40.1389 182.424 40.1009C180.267 40.0649 179.015 42.3028 178.968 44.8691Z" fill="#141414"/>
</svg>
