<svg width="351" height="171" viewBox="0 0 351 171" fill="none" xmlns="http://www.w3.org/2000/svg">
<g clip-path="url(#clip0_1102_843)">
<mask id="mask0_1102_843" style="mask-type:luminance" maskUnits="userSpaceOnUse" x="0" y="-1" width="351" height="172">
<path d="M0 -0.000991821H350.667V170.666H0V-0.000991821Z" fill="white"/>
</mask>
<g mask="url(#mask0_1102_843)">
<path fill-rule="evenodd" clip-rule="evenodd" d="M25.4402 134.178V128.677C28.5702 128.333 31.2922 127.192 33.6172 125.251C35.9412 123.312 37.8122 120.643 39.2322 117.254L63.5432 59.3387C64.3862 57.3287 65.0042 55.4797 65.4012 53.7847C65.7942 52.0947 65.9942 50.4417 65.9942 48.8207L74.8302 37.7867H79.6602L111.488 119.465C112.668 122.313 114.324 124.478 116.461 125.951C118.597 127.425 121.438 128.333 124.973 128.677V134.178H79.6602L79.7332 128.677C84.0062 128.431 86.8542 127.916 88.2782 127.13C89.7032 126.344 90.4152 124.994 90.4152 123.074C90.4152 122.731 90.3292 122.215 90.1572 121.527C89.9862 120.84 89.7522 120.054 89.4582 119.169L82.6802 99.8647H53.8392L48.2932 113.719C47.7082 115.193 47.2702 116.628 46.9802 118.028C46.6852 119.427 46.5422 120.721 46.5422 121.9C46.5422 124.11 47.2092 125.731 48.5472 126.762C49.8852 127.793 52.1362 128.431 55.3002 128.677L55.3742 134.178H25.4402ZM56.4132 93.8407H79.6602L68.4462 63.0917L56.4132 93.8407Z" fill="#0E5DA2"/>
<path fill-rule="evenodd" clip-rule="evenodd" d="M209.331 105.891H215.356L214.963 120.968C211.615 125.478 206.732 128.982 200.311 131.478C193.891 133.978 186.548 135.227 178.284 135.227C171 135.227 164.05 133.888 157.432 131.211C150.815 128.536 144.7 124.594 139.093 119.388C134.665 115.263 131.293 110.491 128.98 105.063C126.668 99.6366 125.514 93.7546 125.514 87.4196C125.514 79.8066 127.073 72.6906 130.2 66.0596C133.327 59.4296 137.82 53.7326 143.681 48.9696C148.601 44.9416 154.077 41.8966 160.109 39.8346C166.138 37.7716 172.551 36.7406 179.345 36.7406C186.629 36.7406 193.301 37.8496 199.357 40.0676C205.41 42.2856 210.481 45.4656 214.57 49.6036L213.052 66.3386H208.521C206.017 58.8366 202.301 53.0746 197.373 49.0546C192.441 45.0356 186.618 43.0266 179.896 43.0266C169.887 43.0266 161.983 46.8406 156.196 54.4696C150.41 62.0986 147.516 72.5626 147.516 85.8566C147.516 99.5456 150.41 110.192 156.2 117.796C161.988 125.4 170.034 129.202 180.339 129.202C187.157 129.202 192.944 127.291 197.704 123.469C202.46 119.646 206.336 113.786 209.331 105.891Z" fill="#0E5DA2"/>
<path fill-rule="evenodd" clip-rule="evenodd" d="M282.534 116.376C282.534 120.993 283.402 124.07 285.137 125.617C286.872 127.165 290.457 128.008 295.892 128.155V134.18H250.055V128.155C255.019 128.008 258.399 127.104 260.196 125.434C261.989 123.764 262.889 120.748 262.889 116.376V52.5427C262.889 49.7677 262.619 48.0987 262.079 47.5377C261.538 46.9767 259.643 46.6937 256.398 46.6937H249.761C245.994 46.6937 242.504 47.9257 239.278 50.3857C236.054 52.8497 232.685 56.8557 229.17 62.4107H223.599L229.022 36.7407H234.445C236.205 38.1737 238.182 39.1877 240.38 39.7817C242.577 40.3747 245.901 40.6697 250.349 40.6697H253.963H306.562C310.168 40.4737 313.651 39.1637 317.011 36.7407H322.348L321.533 62.4107H316.123C313.601 56.8557 310.81 52.8497 307.749 50.3857C304.683 47.9257 300.955 46.6937 296.559 46.6937H288.112C285.861 46.6937 284.367 47.1117 283.635 47.9387C282.898 48.7657 282.534 50.5447 282.534 53.2707V116.376Z" fill="#0E5DA2"/>
</g>
</g>
<defs>
<clipPath id="clip0_1102_843">
<rect width="350.667" height="170.667" fill="white"/>
</clipPath>
</defs>
</svg>
