<svg width="200" height="90" viewBox="0 0 200 90" fill="none" xmlns="http://www.w3.org/2000/svg">
<rect width="200" height="90" fill="white"/>
<path d="M98.5002 50.05L61.4502 67.5L98.5002 7.75V50.05Z" fill="black" stroke="black" stroke-width="0.18" stroke-linecap="square"/>
<path d="M101.15 50.05L138.15 67.5L101.15 7.75V50.05Z" fill="#FF0000" stroke="#FF0000" stroke-width="0.18" stroke-linecap="square"/>
<path d="M77.5001 81.6996V83.8496C77.5001 84.6829 77.0834 85.0996 76.2501 85.0996H61.3501C60.5168 85.0996 60.1001 84.6829 60.1001 83.8496V81.6996H72.6001V78.9496H61.3501C60.5168 78.9496 60.1001 78.5329 60.1001 77.6996V75.5496V73.2496V71.0996C60.1001 70.2663 60.5168 69.8496 61.3501 69.8496H76.2501C77.0834 69.8496 77.5001 70.2663 77.5001 71.0996V73.2496H65.0001V75.9996H76.2501C77.0834 75.9996 77.5001 76.4163 77.5001 77.2496V79.3996V81.6996Z" fill="black" stroke="black" stroke-width="0.18" stroke-linecap="square"/>
<path d="M98.7501 75.7996V79.1496C98.7501 83.2829 96.8334 85.3496 93.0001 85.3496L81.1001 85.0996V69.8496H93.0001C96.8334 69.8496 98.7501 71.8329 98.7501 75.7996ZM85.8001 81.4996H91.7001C93.1334 81.3663 93.9168 80.5829 94.0501 79.1496V75.5496C93.9168 74.1496 93.1334 73.3829 91.7001 73.2496H85.8001V81.4996Z" fill="black" stroke="black" stroke-width="0.18" stroke-linecap="square"/>
<path d="M91.7001 76.2008V78.5508C91.7001 78.9508 91.5001 79.1508 91.1001 79.1508H88.3501V75.5508H91.1001C91.5001 75.5508 91.7001 75.7674 91.7001 76.2008Z" fill="#FF0000" stroke="#FF0000" stroke-width="0.18" stroke-linecap="square"/>
<path d="M102.1 73.4496V71.0996C102.1 70.2663 102.533 69.8496 103.4 69.8496H107V81.4996H119.1V83.8496C119.1 84.6829 118.683 85.0996 117.85 85.0996H103.4C102.533 85.0996 102.1 84.6829 102.1 83.8496V81.4996V73.4496Z" fill="black" stroke="black" stroke-width="0.18" stroke-linecap="square"/>
<path d="M121.65 73.4496V81.4996V83.8496C121.65 84.6829 122.067 85.0996 122.9 85.0996H138.2C139.067 85.0996 139.5 84.6829 139.5 83.8496V75.7996H131.4V78.9496H134.6V81.4996H126.55V73.2496H139.5V71.0996C139.5 70.2663 139.067 69.8496 138.2 69.8496H126.75H122.9C122.067 69.8496 121.65 70.2663 121.65 71.0996V73.4496Z" fill="black" stroke="black" stroke-width="0.18" stroke-linecap="square"/>
</svg>
