<svg width="200" height="90" viewBox="0 0 200 90" fill="none" xmlns="http://www.w3.org/2000/svg">
<g clip-path="url(#clip0_1847_1161)">
<rect width="200" height="90" fill="white"/>
<path d="M98.3005 48.7252L56.3105 68.5018L98.3005 0.785156V48.7252Z" fill="black" stroke="black" stroke-width="0.18" stroke-linecap="square"/>
<path d="M101.303 48.7252L143.236 68.5018L101.303 0.785156V48.7252Z" fill="#FF0000" stroke="#FF0000" stroke-width="0.18" stroke-linecap="square"/>
<path d="M74.4993 84.5941V87.0307C74.4993 87.9752 74.0271 88.4474 73.0826 88.4474H56.196C55.2515 88.4474 54.7793 87.9752 54.7793 87.0307V84.5941H68.946V81.4774H56.196C55.2515 81.4774 54.7793 81.0052 54.7793 80.0607V77.6241V75.0174V72.5807C54.7793 71.6363 55.2515 71.1641 56.196 71.1641H73.0826C74.0271 71.1641 74.4993 71.6363 74.4993 72.5807V75.0174H60.3326V78.1341H73.0826C74.0271 78.1341 74.4993 78.6063 74.4993 79.5507V81.9874V84.5941Z" fill="black" stroke="black" stroke-width="0.18" stroke-linecap="square"/>
<path d="M98.5834 77.9074V81.7041C98.5834 86.3885 96.4112 88.7307 92.0667 88.7307L78.5801 88.4474V71.1641H92.0667C96.4112 71.1641 98.5834 73.4118 98.5834 77.9074ZM83.9067 84.3674H90.5934C92.2179 84.2163 93.1056 83.3285 93.2567 81.7041V77.6241C93.1056 76.0374 92.2179 75.1685 90.5934 75.0174H83.9067V84.3674Z" fill="black" stroke="black" stroke-width="0.18" stroke-linecap="square"/>
<path d="M90.5935 78.3617V81.025C90.5935 81.4783 90.3669 81.705 89.9135 81.705H86.7969V77.625H89.9135C90.3669 77.625 90.5935 77.8706 90.5935 78.3617Z" fill="#FF0000" stroke="#FF0000" stroke-width="0.18" stroke-linecap="square"/>
<path d="M102.381 75.2441V72.5807C102.381 71.6363 102.872 71.1641 103.854 71.1641H107.934V84.3674H121.648V87.0307C121.648 87.9752 121.175 88.4474 120.231 88.4474H103.854C102.872 88.4474 102.381 87.9752 102.381 87.0307V84.3674V75.2441Z" fill="black" stroke="black" stroke-width="0.18" stroke-linecap="square"/>
<path d="M124.537 75.2441V84.3674V87.0307C124.537 87.9752 125.009 88.4474 125.954 88.4474H143.294C144.276 88.4474 144.767 87.9752 144.767 87.0307V77.9074H135.587V81.4774H139.214V84.3674H130.09V75.0174H144.767V72.5807C144.767 71.6363 144.276 71.1641 143.294 71.1641H130.317H125.954C125.009 71.1641 124.537 71.6363 124.537 72.5807V75.2441Z" fill="black" stroke="black" stroke-width="0.18" stroke-linecap="square"/>
</g>
<defs>
<clipPath id="clip0_1847_1161">
<rect width="200" height="90" fill="white"/>
</clipPath>
</defs>
</svg>
