<svg width="200" height="90" viewBox="0 0 200 90" fill="none" xmlns="http://www.w3.org/2000/svg">
<rect width="200" height="90" fill="white"/>
<path d="M190.887 41.4996C190.08 39.0219 188.466 37.1266 186.386 35.6117C183.074 33.2008 179.305 32.1503 175.257 32.0132C172.358 31.9153 169.536 32.3606 166.827 33.422C164.092 34.4926 161.709 36.0597 159.921 38.4285C158.492 40.3238 157.724 42.454 157.813 44.8412C157.903 47.2375 158.814 49.3321 160.378 51.1295C163.319 54.5086 167.175 56.1232 171.513 56.7714C172.155 56.8674 172.803 56.925 173.449 56.9991H175.729C175.844 56.9762 175.958 56.9387 176.074 56.9323C177.98 56.8244 179.838 56.466 181.638 55.837C184.667 54.7774 187.327 53.161 189.268 50.5517C191.304 47.8135 191.958 44.7918 190.888 41.4996H190.887ZM178.815 50.3167C178.412 51.049 177.885 51.689 177.24 52.2275C175.444 53.7278 173.213 53.7233 171.435 52.1973C170.041 51.0015 169.249 49.4335 168.83 47.6873C168.575 46.624 168.476 45.5232 168.391 44.9728C168.446 42.1213 168.908 39.9279 170.264 38.0144C170.669 37.4421 171.173 36.909 171.727 36.4793C173.381 35.1966 175.396 35.2295 177.049 36.5141C178.455 37.6057 179.277 39.0868 179.756 40.7581C180.698 44.0586 180.488 47.2649 178.816 50.3149L178.815 50.3167Z" fill="black"/>
<path d="M159.859 33.0947V36.3019C159.552 36.3019 159.272 36.3019 158.991 36.3019C157.614 36.3046 156.236 36.3193 154.858 36.3037C154.526 36.3001 154.357 36.4134 154.204 36.7023C150.792 43.1177 147.367 49.5258 143.957 55.9439C143.788 56.263 143.604 56.3627 143.25 56.3617C139.153 56.3489 135.058 56.3508 130.961 56.3599C130.688 56.3599 130.546 56.2804 130.416 56.0372C126.993 49.6136 123.557 43.1964 120.136 36.7709C119.966 36.4509 119.777 36.3522 119.425 36.3558C117.918 36.3769 116.41 36.3641 114.901 36.3641H114.486V33.0974H138.073C138.085 33.1751 138.11 33.2638 138.111 33.3525C138.119 34.2283 138.113 35.1051 138.132 35.981C138.137 36.2516 138.042 36.3193 137.783 36.3193C136.073 36.322 134.364 36.3403 132.655 36.3531C132.526 36.3531 132.397 36.3531 132.166 36.3531C134.91 41.1155 137.616 45.8121 140.364 50.5799C142.898 45.8075 145.401 41.0908 147.948 36.2964H143.614V33.0938H159.859V33.0947Z" fill="black"/>
<path d="M120.26 45.5843V56.3332C120.132 56.3396 120.017 56.3515 119.902 56.3515C109.179 56.346 98.4564 56.3369 87.733 56.3415C87.3582 56.3415 87.2768 56.2299 87.2841 55.8816C87.3052 54.8531 87.2924 53.8236 87.2924 52.7374H93.001V36.3758H87.6114V33.0689H87.9918C94.9027 33.0689 101.815 33.0707 108.725 33.0625C109.032 33.0625 109.14 33.132 109.134 33.452C109.118 34.2922 109.139 35.1333 109.141 35.9744C109.141 36.0777 109.126 36.1811 109.112 36.341H103.755V36.7799C103.755 41.9565 103.758 47.133 103.747 52.3096C103.747 52.6542 103.846 52.7457 104.185 52.7429C105.919 52.7274 107.652 52.7457 109.386 52.7365C112.371 52.721 115.148 50.9153 116.197 48.3024C116.368 47.8772 116.493 47.4283 116.59 46.9794C116.687 46.5314 116.722 46.0706 116.788 45.5833H120.259L120.26 45.5843Z" fill="black"/>
<path d="M85.6577 42.4377C85.0762 40.1264 83.7487 38.2814 81.9613 36.7537C79.0741 34.287 75.6602 33.0326 71.9364 32.5783C68.2995 32.1348 64.7402 32.5079 61.309 33.8399C58.6183 34.8849 56.2678 36.4163 54.4895 38.7285C53.3092 40.2635 52.5632 41.9869 52.4105 43.9279C52.1892 46.7393 53.13 49.1767 54.975 51.2594C57.908 54.5699 61.7433 56.1306 66.0257 56.7724C66.6556 56.8675 67.2919 56.926 67.9255 57H70.3483C70.4754 56.9763 70.6016 56.9406 70.7296 56.9324C72.8991 56.7989 75.0028 56.3555 77.0252 55.5601C79.9216 54.4209 82.4367 52.7551 84.2104 50.1422C85.8039 47.7925 86.3598 45.2234 85.6586 42.4368L85.6577 42.4377ZM73.5565 50.1284C73.1249 50.9677 72.5453 51.7019 71.8121 52.3062C70.0137 53.7864 67.7738 53.78 65.9946 52.2724C64.583 51.0765 63.7867 49.5013 63.3698 47.7413C63.1311 46.7356 63.0415 45.6943 62.8843 44.6694C62.9154 44.6639 62.9446 44.6584 62.9757 44.652C62.9995 42.3307 63.5096 40.1511 64.8819 38.2293C65.5347 37.315 66.3503 36.5791 67.4163 36.1786C69.0208 35.5752 70.4772 35.9217 71.7746 36.974C73.1222 38.0666 73.9094 39.5294 74.3647 41.1678C75.2223 44.2507 75.033 47.254 73.5546 50.1294L73.5565 50.1284Z" fill="black"/>
<path d="M54.4169 33.0908V36.3016C54.1289 36.3016 53.8474 36.3016 53.5658 36.3016C52.1761 36.3044 50.7864 36.3172 49.3976 36.3053C49.0968 36.3026 48.9396 36.3995 48.7961 36.6692C45.3657 43.1166 41.9226 49.5576 38.4923 56.0049C38.3488 56.2746 38.1924 56.3606 37.8907 56.3597C33.782 56.3496 29.6733 56.3487 25.5655 56.3597C25.2602 56.3597 25.1084 56.2646 24.9676 55.9985C21.5501 49.5841 18.1189 43.176 14.7023 36.7606C14.5414 36.458 14.3667 36.3501 14.0202 36.3547C12.4769 36.3766 10.9328 36.3638 9.38948 36.3656C9.25874 36.3656 9.12891 36.3803 9 36.3867V33.0469C9.1536 33.0542 9.30719 33.0679 9.46079 33.0679C17.0492 33.0697 24.6366 33.0697 32.2241 33.0697C32.6995 33.0697 32.7014 33.0697 32.7014 33.5506C32.7014 34.4503 32.7014 35.349 32.7014 36.3172H26.7157C29.4804 41.1162 32.1848 45.8109 34.9331 50.5806C37.4747 45.7926 39.978 41.0778 42.5105 36.309H38.1805V33.0898H54.4169V33.0908Z" fill="black"/>
</svg>
