<svg width="200" height="90" viewBox="0 0 200 90" fill="none" xmlns="http://www.w3.org/2000/svg">
<g clip-path="url(#clip0_1847_1187)">
<rect width="200" height="90" fill="white"/>
<mask id="mask0_1847_1187" style="mask-type:luminance" maskUnits="userSpaceOnUse" x="-70" y="-75" width="340" height="241">
<path d="M-70 -74.9979H270V165.406H-70V-74.9979Z" fill="white"/>
</mask>
<g mask="url(#mask0_1847_1187)">
<path d="M13.804 31.398V42.1801L23.2049 47.2343L43.0781 35.7088C44.2146 35.0501 44.9144 33.8321 44.9144 32.5139V26.2025C44.9144 24.8891 44.219 23.6743 43.0886 23.014L25.2298 12.5748C24.0918 11.9109 22.688 11.9085 21.5483 12.5696L3.69799 22.9252C2.56235 23.5843 1.86328 24.8023 1.86328 26.1197V46.841C1.86328 48.1588 2.56235 49.3764 3.69799 50.0355L21.5229 60.3765C22.6759 61.0457 24.0994 61.0352 25.2419 60.3487L43.0931 49.6227C44.2198 48.9451 44.9007 47.7149 44.8789 46.3955L44.7335 37.5419L23.3911 50.3634L11.4257 43.4224V29.5387L22.1654 23.308C22.923 22.8687 23.8575 22.8703 24.6131 23.3133L35.3358 29.592L24.2804 36.0032C23.4977 36.4579 22.5333 36.4579 21.7506 36.0032L13.804 31.398Z" fill="#354C5E"/>
<path d="M57.0664 54.8175V19.6265C57.0664 19.2429 57.3762 18.9319 57.7574 18.9319H79.4278C79.8098 18.9319 80.1196 19.2429 80.1196 19.6265V25.925C80.1196 26.3087 79.8098 26.6193 79.4278 26.6193H65.87C65.4884 26.6193 65.1782 26.9306 65.1782 27.3135V32.8895C65.1782 33.2731 65.4884 33.5845 65.87 33.5845H78.0421C78.4238 33.5845 78.7331 33.8955 78.7331 34.2791V40.0611C78.7331 40.4452 78.4238 40.7565 78.0421 40.7565H65.87C65.4884 40.7565 65.1782 41.0671 65.1782 41.4508V47.0785C65.1782 47.4621 65.4884 47.7727 65.87 47.7727H79.479C79.8611 47.7727 80.1708 48.0841 80.1708 48.4681V54.8175C80.1708 55.2012 79.8611 55.5117 79.479 55.5117H57.7574C57.3762 55.5117 57.0664 55.2012 57.0664 54.8175Z" fill="#354C5E"/>
<path d="M83.5547 64.6206V30.5648C83.5547 30.1816 83.864 29.8702 84.2457 29.8702H90.4113C90.7921 29.8702 91.1023 30.1816 91.1023 30.5648V32.5017C92.1802 30.8504 94.953 29.2507 98.599 29.2507C105.992 29.2507 110.459 34.9269 110.459 42.6138C110.459 50.4566 105.427 56.0807 98.2905 56.0807C95.0039 56.0807 92.54 54.9442 91.3592 53.5005V64.6206C91.3592 65.0046 91.049 65.3164 90.6673 65.3164H84.2457C83.864 65.3164 83.5547 65.0046 83.5547 64.6206ZM97.0062 36.3189C93.9773 36.3189 91.2558 38.383 91.2558 42.6655C91.2558 46.8963 93.9773 49.0633 97.0062 49.0633C100.088 49.0633 102.808 46.9471 102.808 42.6655C102.808 38.383 100.088 36.3189 97.0062 36.3189Z" fill="#354C5E"/>
<path d="M117.29 17.4352C119.856 17.4352 121.911 19.4993 121.911 22.027C121.911 24.5556 119.856 26.6193 117.29 26.6193C114.825 26.6193 112.771 24.5556 112.771 22.027C112.771 19.4993 114.825 17.4352 117.29 17.4352ZM113.439 54.8175V30.5637C113.439 30.1808 113.748 29.8695 114.13 29.8695H120.552C120.934 29.8695 121.244 30.1808 121.244 30.5637V54.8175C121.244 55.2012 120.934 55.5117 120.552 55.5117H114.13C113.748 55.5117 113.439 55.2012 113.439 54.8175Z" fill="#354C5E"/>
<path d="M141.765 36.842C141.707 37.2212 141.357 37.4756 140.978 37.4252C140.493 37.3597 140.028 37.3363 139.498 37.3363C136.366 37.3363 133.542 39.2078 133.542 44.3153V54.8163C133.542 55.2008 133.233 55.5117 132.851 55.5117H126.429C126.048 55.5117 125.738 55.2008 125.738 54.8163V30.5633C125.738 30.1796 126.048 29.8682 126.429 29.8682H132.594C132.976 29.8682 133.286 30.1796 133.286 30.5633V33.3264C134.621 30.4365 137.855 29.611 139.909 29.611C140.492 29.611 141.416 29.7083 142.151 29.8638C142.51 29.9393 142.747 30.2834 142.691 30.6481L141.765 36.842Z" fill="#354C5E"/>
<path d="M170.008 42.6683C170.008 50.6133 164.103 56.2891 156.453 56.2891C148.854 56.2891 142.898 50.6133 142.898 42.6683C142.898 34.7229 148.854 29.0988 156.453 29.0988C164.103 29.0988 170.008 34.7229 170.008 42.6683ZM162.204 42.6683C162.204 38.3342 159.432 36.3218 156.453 36.3218C153.527 36.3218 150.703 38.3342 150.703 42.6683C150.703 46.95 153.527 49.0666 156.453 49.0666C159.432 49.0666 162.204 47.0025 162.204 42.6683Z" fill="#354C5E"/>
<path d="M179.983 42.7196C179.983 46.7961 182.705 49.0661 185.939 49.0661C188.654 49.0661 190.297 47.5331 191.015 45.8398C191.155 45.5102 191.512 45.3358 191.853 45.4395L197.455 47.1628C197.829 47.2771 198.031 47.6781 197.91 48.0513C196.54 52.2941 192.418 56.2891 185.939 56.2891C178.34 56.2891 172.23 50.665 172.23 42.7196C172.23 34.7229 178.186 29.0988 185.682 29.0988C192.364 29.0988 196.406 33.0098 197.762 37.337C197.879 37.711 197.675 38.1092 197.302 38.2219L191.604 39.9484C191.259 40.053 190.899 39.8716 190.764 39.5364C190.071 37.8144 188.552 36.3213 185.837 36.3213C182.601 36.3213 179.983 38.5918 179.983 42.7196Z" fill="#354C5E"/>
<path d="M198.095 68.1346C198.032 68.1221 197.954 68.1156 197.866 68.1156H197.541C196.903 68.1665 196.303 68.406 195.742 68.8329C195.18 69.2606 194.728 69.8183 194.384 70.5073V68.192H192.815V78.1801H194.498V72.0189C194.766 71.292 195.222 70.7241 195.866 70.3158C196.51 69.9079 197.254 69.6911 198.095 69.6652V68.1346ZM182.387 72.5164C182.425 72.0447 182.537 71.6106 182.722 71.2152C182.907 70.8198 183.148 70.4786 183.448 70.1915C183.749 69.9047 184.096 69.6814 184.491 69.5219C184.887 69.3623 185.308 69.2828 185.754 69.2828C186.201 69.2828 186.622 69.3623 187.017 69.5219C187.412 69.6814 187.76 69.9015 188.06 70.1822C188.36 70.4628 188.609 70.8037 188.806 71.2055C189.003 71.6074 189.121 72.0447 189.16 72.5164H182.387ZM187.17 78.1801C187.63 78.0525 188.047 77.8772 188.424 77.6539C188.799 77.4309 189.132 77.166 189.419 76.8599C189.705 76.5538 189.932 76.2157 190.098 75.8458L188.644 75.444C188.541 75.6992 188.392 75.9286 188.194 76.1325C187.996 76.3369 187.77 76.5089 187.515 76.6491C187.259 76.7896 186.985 76.9011 186.692 76.9843C186.398 77.0671 186.099 77.1086 185.792 77.1086C185.359 77.1086 184.947 77.0255 184.558 76.8599C184.169 76.6939 183.822 76.4645 183.516 76.1709C183.21 75.8777 182.961 75.5268 182.77 75.1185C182.578 74.7106 182.463 74.2574 182.425 73.7599H190.71C190.722 73.6965 190.732 73.6068 190.738 73.4921C190.745 73.3774 190.749 73.2498 190.749 73.1093C190.749 72.4466 190.63 71.8052 190.394 71.1865C190.158 70.5678 189.823 70.0259 189.39 69.5602C188.956 69.0946 188.43 68.7214 187.811 68.4407C187.193 68.1605 186.507 68.0199 185.754 68.0199C185.001 68.0199 184.312 68.1572 183.688 68.4315C183.062 68.7057 182.523 69.0788 182.071 69.5505C181.618 70.0226 181.267 70.5711 181.019 71.1962C180.77 71.8214 180.646 72.4845 180.646 73.186C180.646 73.8875 180.77 74.5543 181.019 75.1855C181.267 75.8167 181.615 76.3688 182.062 76.8405C182.508 77.3126 183.043 77.6858 183.669 77.96C184.293 78.2342 184.982 78.3711 185.736 78.3711C186.233 78.3711 186.711 78.3073 187.17 78.1801ZM178.502 72.2103C178.502 71.6106 178.454 71.0557 178.359 70.5456C178.263 70.0356 178.101 69.5921 177.871 69.2157C177.642 68.8398 177.336 68.5462 176.953 68.3357C176.57 68.1249 176.092 68.0199 175.518 68.0199C174.637 68.0199 173.824 68.2303 173.078 68.6512C172.332 69.0724 171.761 69.6337 171.366 70.3352V68.192H169.835V78.1801H171.519V72.153C171.634 71.7701 171.805 71.4196 172.036 71.1005C172.265 70.7819 172.533 70.5073 172.839 70.2775C173.145 70.0481 173.47 69.8663 173.815 69.7323C174.159 69.5986 174.504 69.5316 174.848 69.5316C175.511 69.5316 176.006 69.7739 176.331 70.2585C176.656 70.7435 176.818 71.5213 176.818 72.5928V78.1801H178.502V72.2103ZM167.673 76.3429C167.571 76.4072 167.382 76.4932 167.109 76.6014C166.834 76.71 166.531 76.7642 166.2 76.7642C165.906 76.7642 165.651 76.6814 165.435 76.5154C165.217 76.3498 165.096 76.0816 165.071 75.7117V69.5122H167.31V68.192H165.071V64.8626H163.387V68.192H162.029V69.5122H163.387V76.2282C163.387 76.9427 163.61 77.4689 164.057 77.8069C164.503 78.1449 165.033 78.3137 165.645 78.3137C165.913 78.3137 166.171 78.2915 166.42 78.2471C166.669 78.2019 166.898 78.1449 167.109 78.0747C167.319 78.0048 167.507 77.9345 167.673 77.8643C167.838 77.7944 167.972 77.7334 168.075 77.6825L167.673 76.3429ZM161.053 68.1346C160.989 68.1221 160.913 68.1156 160.823 68.1156H160.498C159.86 68.1665 159.261 68.406 158.699 68.8329C158.138 69.2606 157.685 69.8183 157.341 70.5073V68.192H155.772V78.1801H157.456V72.0189C157.723 71.292 158.179 70.7241 158.824 70.3158C159.468 69.9079 160.211 69.6911 161.053 69.6652V68.1346ZM147.124 76.9552C146.856 76.8534 146.623 76.7133 146.426 76.5344C146.227 76.3559 146.074 76.1455 145.966 75.9031C145.857 75.6608 145.804 75.3991 145.804 75.1185C145.804 74.5446 146.068 74.0789 146.597 73.7219C147.127 73.3649 147.812 73.186 148.654 73.186C149.535 73.186 150.383 73.3455 151.2 73.6642V75.1378C151.2 75.3931 151.078 75.6419 150.836 75.8838C150.568 76.2541 150.176 76.5505 149.659 76.7735C149.142 76.9968 148.584 77.1086 147.985 77.1086C147.678 77.1086 147.391 77.0578 147.124 76.9552ZM149.736 77.9026C150.418 77.59 150.982 77.1341 151.429 76.5344L151.467 77.2423C151.506 77.523 151.623 77.7625 151.821 77.96C152.019 78.1579 152.283 78.2564 152.616 78.2564C152.742 78.2564 152.864 78.2499 152.979 78.2374C153.093 78.2245 153.24 78.2055 153.419 78.1801V76.7258C153.061 76.7133 152.883 76.5089 152.883 76.1136V72.0379C152.883 70.7625 152.517 69.7739 151.783 69.0724C151.049 68.3709 150.026 68.0199 148.712 68.0199C147.411 68.0199 146.116 68.4537 144.828 69.3211L145.383 70.4116C146.493 69.6337 147.551 69.2444 148.559 69.2444C149.401 69.2444 150.051 69.4774 150.511 69.9427C150.97 70.4087 151.2 71.0496 151.2 71.8658V72.6695C150.817 72.5164 150.377 72.3953 149.879 72.306C149.382 72.2168 148.89 72.1719 148.406 72.1719C147.793 72.1719 147.229 72.2483 146.712 72.4013C146.195 72.5544 145.749 72.7652 145.373 73.033C144.997 73.3007 144.706 73.623 144.502 73.9994C144.299 74.3758 144.196 74.7934 144.196 75.2525C144.196 75.6992 144.282 76.1103 144.455 76.4867C144.627 76.8631 144.863 77.1914 145.163 77.4721C145.462 77.7528 145.816 77.9729 146.225 78.132C146.632 78.2915 147.073 78.3711 147.544 78.3711C148.323 78.3711 149.053 78.2148 149.736 77.9026ZM134.974 66.1255H138.82C139.151 66.1255 139.467 66.1957 139.767 66.3363C140.067 66.4768 140.328 66.6743 140.552 66.9291C140.774 67.1844 140.953 67.484 141.088 67.8285C141.221 68.173 141.288 68.5429 141.288 68.9383C141.288 69.3211 141.23 69.6846 141.116 70.0291C141.001 70.3732 140.841 70.6765 140.638 70.9378C140.434 71.1995 140.188 71.4034 139.901 71.55C139.614 71.697 139.292 71.7701 138.935 71.7701H134.974V66.1255ZM134.974 78.1801V73.3007H139.03C139.63 73.3007 140.175 73.1796 140.666 72.9372C141.157 72.6949 141.578 72.3698 141.929 71.9615C142.28 71.5532 142.551 71.088 142.743 70.5646C142.934 70.0416 143.029 69.4997 143.029 68.9383C143.029 68.4024 142.927 67.8766 142.724 67.3596C142.519 66.8431 142.235 66.3775 141.871 65.9631C141.508 65.5488 141.075 65.2168 140.571 64.968C140.067 64.7192 139.515 64.5949 138.916 64.5949H133.252V78.1801H134.974Z" fill="#354C5E"/>
</g>
</g>
<defs>
<clipPath id="clip0_1847_1187">
<rect width="200" height="90" fill="white"/>
</clipPath>
</defs>
</svg>
