<svg width="200" height="90" viewBox="0 0 200 90" fill="none" xmlns="http://www.w3.org/2000/svg">
<rect width="200" height="90" fill="white"/>
<g clip-path="url(#clip0_1847_1202)">
<path d="M64.3552 13.6211H1.63672V76.096H64.3552V13.6211Z" fill="white"/>
<path d="M33.3861 13.6211L1.82422 76.098H12.5156L44.011 13.6211H33.3861Z" fill="#8DC63F"/>
<path d="M44.0675 13.6211L12.5156 76.098H32.8901L64.3553 13.6211H44.0675Z" fill="#007A5E"/>
<path d="M1 13.6366V76.3654C1 76.7159 1.28432 77.002 1.63721 77.002H64.4223C64.7731 77.002 65.0595 76.7179 65.0595 76.3654V13.6366C65.0595 13.2861 64.7752 13 64.4223 13H1.63721C1.28432 13 1 13.2841 1 13.6366ZM62.8454 75.4265H2.93582C2.58495 75.4265 2.29861 75.1425 2.29861 74.7899V14.9341C2.29861 14.5835 2.58294 14.2974 2.93582 14.2974H62.8434C63.1942 14.2974 63.4806 14.5815 63.4806 14.9341V74.7879C63.4806 75.1384 63.1963 75.4245 62.8434 75.4245L62.8454 75.4265Z" fill="#010101"/>
<path d="M139.46 31.2015C140.055 28.8746 140.612 26.7753 141.114 24.6619C141.235 24.1542 141.416 23.9648 141.953 23.9729C143.794 24.0051 145.635 23.993 147.476 23.9789C147.911 23.9749 148.075 24.0273 147.968 24.5511C146.522 31.7536 145.098 38.958 143.689 46.1665C143.592 46.6581 143.382 46.785 142.902 46.7769C140.954 46.7487 139.007 46.7407 137.059 46.781C136.508 46.7931 136.339 46.5775 136.23 46.1C135.756 44.0249 135.256 41.9558 134.762 39.8868C134.701 39.637 134.625 39.3912 134.498 38.9439C134.028 41.5025 133.582 43.8537 133.177 46.2128C133.096 46.6823 132.973 46.9059 132.439 46.8958C130.519 46.8636 128.597 46.8757 126.676 46.8898C126.274 46.8938 126.051 46.8152 125.962 46.3639C124.534 39.0507 123.092 31.7395 121.655 24.4282C121.645 24.3819 121.669 24.3275 121.687 24.2227C123.863 24.2227 126.049 24.2288 128.232 24.2167C128.616 24.2167 128.634 24.4484 128.692 24.7244C129.178 27.0312 129.676 29.3339 130.285 31.6468C130.604 29.9524 130.922 28.2561 131.241 26.5618C131.364 25.907 131.487 25.2542 131.596 24.5974C131.656 24.2288 131.81 24.0736 132.225 24.0797C134.012 24.1079 135.8 24.1079 137.589 24.0797C138.071 24.0716 138.22 24.2449 138.297 24.6962C138.652 26.7934 139.043 28.8847 139.46 31.1995V31.2015Z" fill="#010101"/>
<path d="M168.095 39.8866C168.095 41.859 168.081 43.8313 168.105 45.8037C168.111 46.2892 168.035 46.4947 167.47 46.4867C165.149 46.4504 162.828 46.4544 160.507 46.4867C159.993 46.4927 159.9 46.3336 159.902 45.8581C159.919 38.7403 159.919 31.6245 159.902 24.5066C159.902 24.003 160.042 23.8881 160.525 23.8942C162.687 23.9204 164.847 23.9244 167.008 23.8922C167.472 23.8861 167.652 24.0735 167.825 24.4482C168.71 26.3521 169.618 28.2438 170.551 30.2102C170.737 29.9986 170.674 29.7871 170.674 29.6037C170.68 27.8711 170.695 26.1385 170.668 24.4059C170.66 23.8861 170.751 23.6504 171.352 23.6605C173.512 23.6967 175.673 23.6947 177.835 23.6605C178.395 23.6524 178.482 23.8599 178.482 24.3515C178.482 31.5217 178.492 38.6919 178.521 45.8621C178.521 46.3517 178.406 46.4907 177.905 46.4826C175.905 46.4524 173.903 46.4524 171.902 46.4826C171.423 46.4907 171.203 46.3235 171.017 45.9024C170.221 44.1033 169.39 42.3203 168.567 40.5333C168.46 40.3016 168.339 40.076 168.226 39.8463C168.182 39.8604 168.138 39.8725 168.093 39.8866H168.095Z" fill="#010101"/>
<path d="M121.011 35.7834C121.011 39.3312 120.999 42.8791 121.026 46.4249C121.03 46.985 120.89 47.1361 120.326 47.128C118.11 47.0938 115.894 47.0978 113.68 47.128C113.175 47.1341 113.061 46.983 113.065 46.5014C113.091 44.3417 113.061 42.18 113.087 40.0203C113.093 39.4823 112.978 39.2527 112.387 39.2909C111.617 39.3413 110.836 39.3393 110.066 39.2909C109.516 39.2567 109.403 39.4622 109.409 39.9719C109.435 42.1316 109.405 44.2934 109.431 46.4531C109.437 46.9628 109.318 47.1361 108.775 47.128C106.533 47.0958 104.291 47.0978 102.049 47.128C101.542 47.1341 101.436 46.985 101.438 46.5014C101.454 39.3272 101.454 32.151 101.438 24.9767C101.438 24.5053 101.524 24.334 102.042 24.3401C104.311 24.3703 106.582 24.3643 108.85 24.3441C109.316 24.3401 109.435 24.4912 109.429 24.9384C109.407 26.8584 109.439 28.7784 109.407 30.6984C109.397 31.2504 109.54 31.4499 110.112 31.4116C110.856 31.3632 111.611 31.3532 112.353 31.4136C112.992 31.466 113.097 31.2061 113.089 30.64C113.056 28.7462 113.095 26.8524 113.065 24.9586C113.056 24.4549 113.21 24.3361 113.696 24.3421C115.938 24.3683 118.18 24.3723 120.423 24.3401C120.951 24.332 121.024 24.5214 121.022 24.9808C121.005 28.581 121.011 32.1832 121.011 35.7834Z" fill="#010101"/>
<path d="M198.99 39.5081C198.99 40.7613 198.973 42.0144 198.998 43.2675C199.006 43.6745 198.909 43.9605 198.572 44.2164C194.594 47.2283 190.272 47.8267 185.812 45.6065C181.42 43.4226 179.154 39.6975 179.283 34.7575C179.402 30.1943 181.628 26.7674 185.665 24.6922C189.796 22.5688 193.896 22.9193 197.796 25.4457C198.665 26.0078 198.655 26.03 198.012 26.8218C196.767 28.3529 195.509 29.872 194.283 31.4172C193.958 31.8262 193.765 31.9853 193.222 31.6247C191.809 30.6859 189.968 30.7846 188.645 31.7839C187.236 32.8476 186.639 34.2942 187.03 36.0066C187.427 37.7392 188.597 38.7909 190.351 39.1858C190.904 39.3107 191.182 39.2623 191.141 38.5753C191.083 37.566 191.146 36.5486 191.117 35.5372C191.105 35.102 191.206 34.9389 191.682 34.9429C193.922 34.9671 196.165 34.9731 198.405 34.9409C198.945 34.9328 199.004 35.1464 198.996 35.5936C198.971 36.8991 198.988 38.2067 198.988 39.5122L198.99 39.5081Z" fill="#010101"/>
<path d="M85.3151 58.4513C84.4359 58.5077 83.5567 58.5561 82.6795 58.6286C82.3045 58.6588 82.1311 58.5742 82.0343 58.1531C81.4777 55.7657 79.4955 55.4414 77.6726 55.8423C76.864 56.0196 76.3115 56.7328 76.3297 57.4379C76.3498 58.2196 76.866 58.6568 77.5416 58.8522C79.0761 59.2934 80.6288 59.6661 82.1694 60.0832C83.4055 60.4176 84.6214 60.8145 85.7547 61.4169C88.0898 62.6579 89.4206 64.5799 89.4085 67.2554C89.3944 70.1041 88.1623 72.3324 85.6881 73.8131C83.9398 74.8588 81.9939 75.1287 80.0017 75.1771C77.9932 75.2274 76.005 75.0945 74.0793 74.4538C70.8368 73.3739 69.4172 70.1928 69.1046 67.5959C69.0663 67.2776 69.1853 67.1708 69.4877 67.1526C71.4054 67.0398 73.3231 66.929 75.2387 66.788C75.8034 66.7457 75.7287 67.1526 75.7913 67.4589C76.1119 69.0162 76.9003 70.1666 78.5276 70.5494C79.3967 70.7529 80.282 70.7448 81.1248 70.4063C82.004 70.0518 82.5989 69.4151 82.6715 68.4461C82.7461 67.4548 82.1936 66.7759 81.3567 66.3407C80.2114 65.7444 78.943 65.5208 77.7069 65.2024C76.3639 64.8579 75.0431 64.449 73.797 63.8305C71.0848 62.4867 69.7217 60.3511 69.9253 57.7764C70.1431 55.0264 71.9599 52.776 74.8012 51.9862C77.7573 51.1642 80.7639 51.128 83.7301 51.952C86.6177 52.7518 88.1119 54.8027 88.612 57.6756C88.6866 58.1007 88.61 58.3042 88.1119 58.3103C87.1783 58.3244 86.2467 58.407 85.3151 58.4593C85.3151 58.4553 85.3151 58.4533 85.3151 58.4493V58.4513Z" fill="#010101"/>
<path d="M79.9173 32.3751C79.9132 32.8103 80.1371 32.9856 80.2782 33.1951C81.4982 35.0083 82.7968 36.7691 83.9361 38.6307C86.0332 42.0516 84.8052 45.8795 81.0949 47.0359C80.3992 47.2535 79.6854 47.332 78.9635 47.334C76.0557 47.3401 73.1459 47.3179 70.2382 47.3421C69.7058 47.3461 69.5667 47.191 69.5727 46.6712C69.601 44.4591 69.605 42.245 69.5687 40.0329C69.5586 39.4648 69.7744 39.3862 70.2583 39.3942C71.6961 39.4204 73.1338 39.4043 74.5736 39.4043C74.6643 39.0961 74.4324 38.9409 74.3115 38.7556C73.0935 36.9102 71.9421 35.0164 70.6213 33.2475C68.5726 30.5035 69.8187 25.1183 74.7611 24.5502C77.437 24.2419 80.1471 24.4796 82.8412 24.4555C84.8596 24.4353 84.8596 24.4514 84.8596 26.4822C84.8596 28.1343 84.8092 29.7903 84.8798 31.4403C84.9141 32.2442 84.6439 32.4235 83.8998 32.3912C82.577 32.3348 81.2501 32.3751 79.9173 32.3751Z" fill="#010101"/>
<path d="M126.577 54.2461C126.577 55.7208 126.61 57.0787 126.563 58.4326C126.543 59.0209 126.743 59.1478 127.283 59.1155C128.215 59.0632 129.15 59.045 130.082 59.0813C130.598 59.1014 130.79 58.9141 130.691 58.4467C130.37 56.9296 131.088 56.2285 132.49 55.8155C133.78 55.4348 135.002 54.8183 136.388 54.2501C136.388 55.6523 136.426 56.9659 136.371 58.2754C136.345 58.9262 136.5 59.172 137.188 59.1196C137.983 59.0571 138.789 59.1276 139.588 59.0954C140.015 59.0793 140.134 59.2264 140.12 59.6374C140.092 60.4634 140.088 61.2914 140.12 62.1154C140.138 62.5586 139.963 62.6493 139.564 62.6372C138.737 62.611 137.908 62.6594 137.083 62.6191C136.597 62.5949 136.448 62.7319 136.446 63.2295C136.44 65.0427 136.365 66.8539 136.351 68.6671C136.337 70.5407 137.025 71.1975 138.924 71.1895C139.758 71.1868 140.175 71.5911 140.175 72.4023C140.175 72.5897 140.175 72.775 140.175 72.9624C140.175 74.053 139.642 74.6614 138.577 74.7877C136.876 74.9911 135.174 75.1181 133.5 74.6225C131.677 74.0825 130.77 72.8959 130.762 70.9739C130.752 68.4959 130.747 66.0138 130.818 63.5378C130.84 62.7661 130.592 62.605 129.888 62.6493C129.013 62.7037 128.13 62.6634 127.253 62.6251C126.799 62.605 126.594 62.6855 126.594 63.2174C126.594 65.0024 126.523 66.7894 126.503 68.5744C126.481 70.5226 127.203 71.2217 129.165 71.1874C130.316 71.1673 130.342 71.1693 130.308 72.2593C130.286 73.0188 130.657 74.006 130.138 74.4774C129.683 74.8924 128.729 74.7816 127.991 74.8622C126.444 75.0314 124.906 75.0476 123.405 74.5338C121.885 74.012 120.998 72.9442 120.97 71.3365C120.923 68.6993 120.949 66.0581 120.998 63.4209C121.01 62.7722 120.82 62.5929 120.203 62.6513C119.594 62.7097 118.975 62.6573 118.364 62.6876C117.961 62.7077 117.79 62.5929 117.806 62.1557C117.836 61.3035 117.838 60.4493 117.806 59.5971C117.79 59.1498 117.977 59.0571 118.37 59.0732C119.01 59.0974 119.651 59.0591 120.29 59.0873C120.693 59.1055 120.937 58.9906 120.834 58.5615C120.423 56.8531 121.367 56.1903 122.823 55.749C124.061 55.3723 125.236 54.7921 126.573 54.2481L126.577 54.2461Z" fill="#010101"/>
<path d="M99.8267 33.1001C97.5198 30.8134 94.727 31.3493 93.2872 32.9127C91.7406 34.5909 91.7507 37.0508 93.3417 38.6868C94.9024 40.2925 97.6388 40.639 99.6976 38.5558C99.9416 38.6606 99.8186 38.8761 99.8206 39.0333C99.8307 41.461 99.8146 43.8866 99.8368 46.3143C99.8408 46.8139 99.7359 47.0416 99.1955 47.1806C93.1461 48.7218 86.5603 44.8678 84.9632 38.8197C83.3279 32.6286 86.9737 26.224 93.0856 24.5277C95.1343 23.9575 97.1831 23.8951 99.254 24.3826C99.5746 24.4592 99.8408 24.5075 99.8368 24.9669C99.8166 27.6242 99.8267 30.2816 99.8267 33.1001Z" fill="#010101"/>
<path d="M156.562 35.4273C156.562 38.9207 156.542 42.4162 156.58 45.9096C156.586 46.5623 156.382 46.6893 155.782 46.6792C153.646 46.6449 151.511 46.653 149.375 46.6752C148.899 46.6792 148.684 46.6188 148.686 46.0466C148.708 38.8985 148.706 31.7505 148.688 24.6025C148.688 24.0645 148.845 23.9376 149.359 23.9437C151.547 23.9698 153.737 23.9739 155.927 23.9416C156.485 23.9336 156.576 24.133 156.574 24.6286C156.556 28.2289 156.564 31.8291 156.564 35.4313L156.562 35.4273Z" fill="#010101"/>
<path d="M97.4668 54.2578C97.4668 55.6097 97.5313 56.8648 97.4446 58.1099C97.3821 58.9903 97.7067 59.1917 98.5032 59.1192C99.2171 59.0547 99.945 59.1293 100.663 59.097C101.082 59.0789 101.217 59.2119 101.201 59.633C101.171 60.459 101.169 61.287 101.201 62.113C101.219 62.5502 101.052 62.6509 100.649 62.6388C99.7958 62.6126 98.9408 62.6509 98.0858 62.6227C97.6785 62.6086 97.5353 62.7194 97.5313 63.1465C97.5151 65.0403 97.4365 66.9321 97.4325 68.8259C97.4305 70.492 98.0777 71.1025 99.7655 71.1891C100.237 71.2133 100.844 70.9252 101.145 71.2576C101.461 71.6061 101.246 72.2246 101.25 72.7243C101.264 74.612 101.254 74.5999 99.338 74.8195C97.8196 74.9948 96.3032 75.0834 94.809 74.6785C92.73 74.1124 91.8367 72.9499 91.8367 70.8083C91.8367 68.3283 91.8488 65.8482 91.8932 63.3681C91.9033 62.8222 91.7823 62.6006 91.1975 62.6529C90.5623 62.7094 89.915 62.6509 89.2778 62.6912C88.8423 62.7194 88.7294 62.5603 88.7435 62.1493C88.7717 61.3233 88.7878 60.4932 88.7394 59.6692C88.7072 59.1353 88.927 59.0487 89.3847 59.0729C90.0239 59.1071 90.6652 59.0688 91.3064 59.087C91.6492 59.097 91.8065 58.9721 91.7742 58.6256C91.7702 58.5732 91.7843 58.5168 91.7742 58.4665C91.4032 56.8849 92.2219 56.2141 93.6314 55.795C94.9179 55.4122 96.1399 54.8038 97.4668 54.2618V54.2578Z" fill="#010101"/>
<path d="M163.628 61.6611C164.251 60.7424 164.792 59.991 165.562 59.441C166.506 58.7661 167.556 58.4639 168.71 58.4618C169.048 58.4618 169.177 58.5666 169.173 58.9192C169.157 60.1985 169.155 61.4778 169.173 62.7571C169.179 63.1419 169.048 63.2608 168.663 63.2507C168.026 63.2326 167.391 63.2769 166.758 63.4179C164.699 63.8793 163.622 65.209 163.626 67.3385C163.628 69.3108 163.612 71.2832 163.638 73.2556C163.644 73.7592 163.529 73.9607 162.985 73.9587C161.491 73.9526 159.996 73.9889 158.504 74.0433C158.065 74.0594 157.978 73.9103 157.976 73.5074C157.935 68.6299 157.881 63.7524 157.819 58.8748C157.815 58.488 157.873 58.3047 158.329 58.3128C159.823 58.341 161.317 58.3369 162.809 58.3128C163.225 58.3067 163.374 58.4498 163.398 58.8487C163.453 59.725 163.537 60.6014 163.624 61.6611H163.628Z" fill="#010101"/>
<path d="M146.335 67.945C149.352 67.9349 152.368 67.8705 155.385 67.8161C157.248 67.7818 157.26 67.7717 157.198 65.8639C157.111 63.3012 156.258 61.1173 154.004 59.6728C150.943 57.7105 145.94 57.8958 143.014 60.0697C140.669 61.8144 139.971 64.2682 140.052 67.0424C140.052 67.4695 140.035 67.8967 140.054 68.3217C140.177 71.2571 141.757 73.4833 144.528 74.4141C147.198 75.3086 149.934 75.4094 152.638 74.5713C154.861 73.8822 156.494 72.5566 156.938 70.1047C157.026 69.6152 156.958 69.4399 156.419 69.452C154.977 69.4842 153.536 69.4802 152.094 69.452C151.626 69.4419 151.487 69.599 151.374 70.0523C151.126 71.0577 150.442 71.6963 149.414 71.9401C147.379 72.4216 145.603 70.9952 145.506 68.8315C145.478 68.1968 145.641 67.949 146.337 67.947L146.335 67.945ZM148.684 61.5283C150.299 61.5545 151.545 62.86 151.527 64.4818C151.523 64.8505 151.398 65.0016 151.009 64.9895C150.209 64.9653 149.408 64.9814 148.607 64.9814C148.607 64.9673 148.607 64.9512 148.607 64.9371C147.861 64.9371 147.113 64.923 146.367 64.9432C145.974 64.9532 145.807 64.8626 145.813 64.4153C145.837 62.7331 147.039 61.5021 148.684 61.5283Z" fill="#010101"/>
<path d="M113.381 58.8642C111.114 58.1329 108.822 58.0805 106.545 58.8421C103.78 59.7668 101.972 61.5881 101.345 64.4811C101.157 65.3434 101.084 66.2198 101.147 67.1022C101.147 67.4749 101.125 67.8496 101.151 68.2203C101.324 70.7145 102.246 72.846 104.603 73.942C107.975 75.5094 111.467 75.586 114.903 74.1032C116.611 73.3658 117.696 72.018 118.053 70.1403C118.146 69.6528 118.089 69.413 117.495 69.4292C116.055 69.4674 114.613 69.4553 113.173 69.4332C112.748 69.4271 112.584 69.5581 112.492 69.9892C112.272 71.0147 111.598 71.6594 110.582 71.9213C108.441 72.4753 106.483 70.7971 106.618 68.5689C106.652 67.9987 106.944 67.9584 107.39 67.9524C110.59 67.9101 113.79 67.8557 116.99 67.7993C118.279 67.7771 118.279 67.7711 118.319 66.4857C118.436 62.678 116.674 59.9239 113.381 58.8602V58.8642ZM112.052 64.9868C111.306 64.9546 110.558 64.9787 109.81 64.9787C109.81 64.9646 109.81 64.9485 109.81 64.9344C109.009 64.9344 108.209 64.9223 107.408 64.9405C107.019 64.9485 106.914 64.7954 106.922 64.4167C106.96 62.7384 108.098 61.5457 109.713 61.5236C111.324 61.5034 112.578 62.7525 112.639 64.3985C112.657 64.8619 112.506 65.0069 112.05 64.9888L112.052 64.9868Z" fill="#010101"/>
</g>
<defs>
<clipPath id="clip0_1847_1202">
<rect width="198" height="64" fill="white" transform="translate(1 13)"/>
</clipPath>
</defs>
</svg>
