<svg width="200" height="90" viewBox="0 0 200 90" fill="none" xmlns="http://www.w3.org/2000/svg">
<rect width="200" height="90" fill="white"/>
<path fill-rule="evenodd" clip-rule="evenodd" d="M48.7863 44.4472C48.7863 40.3034 52.3718 37 59.1216 37C65.8738 37 69.4965 40.3034 69.4965 44.4472C69.4965 48.6499 66.0813 52 59.1612 52C52.2388 52 48.7863 48.6499 48.7863 44.4472ZM55.5442 44.3597C55.4989 47.0159 56.582 49.6879 59.0471 49.7309C61.5867 49.7776 62.6783 47.0766 62.7235 44.4839C62.7735 41.7344 61.5537 39.2917 59.2442 39.2509C56.9347 39.2124 55.5941 41.6102 55.5442 44.3597ZM5.33649 39.4921L12.1179 51.5757L19.9674 51.5816L26.6323 39.4921H29.973V37.3023H19.924V39.4921H22.8267L17.9733 48.2927L13.0558 39.4921H16.5832L16.5809 37.3023H2.00236L2 39.4921H5.33649ZM91.7236 39.4862V37.3023L105.168 37.3041V39.488H101.818V49.3511H104.923C107.799 49.3511 109.685 47.4868 109.685 44.9589H111.903V51.5635L91.7236 51.5653V49.3529H95.1124L95.1081 39.4862H91.7236ZM134.833 39.4921L141.612 51.5757L149.463 51.5816L156.128 39.4921H159.469V37.3023H149.42V39.4921H152.323L147.47 48.2927L142.552 39.4921H146.077V37.3023H131.498L131.496 39.4921H134.833ZM178.289 44.4472C178.289 40.3034 181.875 37 188.625 37C195.377 37 199 40.3034 199 44.4472C199 48.6499 195.584 52 188.664 52C181.742 52 178.289 48.6499 178.289 44.4472ZM185.048 44.3597C185.002 47.0159 186.085 49.6879 188.55 49.7309C191.088 49.7776 192.179 47.0766 192.225 44.4839C192.275 41.7344 191.057 39.2917 188.747 39.2509C186.438 39.2124 185.097 41.6102 185.048 44.3597Z" fill="#141414"/>
</svg>
